<?xml version="1.0" standalone="no"?>
<!DOCTYPE svg PUBLIC "-//W3C//DTD SVG 1.1//EN" "http://www.w3.org/Graphics/SVG/1.1/DTD/svg11.dtd" >
<svg xmlns="http://www.w3.org/2000/svg">
<metadata>Generated by IcoMoon</metadata>
<defs>
<font id="icomoon" horiz-adv-x="1024">
<font-face units-per-em="1024" ascent="960" descent="-64" />
<missing-glyph horiz-adv-x="1024" />
<glyph unicode="&#x20;" horiz-adv-x="512" d="" />
<glyph unicode="&#xe900;" glyph-name="aerialway" d="M887.467 614.4h-341.333v163.84c12.657 7.148 22.699 18.152 28.672 31.403l346.795 43.691c18.848 0 34.133 15.285 34.133 34.133s-15.285 34.133-34.133 34.133l-356.352-44.373c-12.602 16.814-32.242 26.883-53.248 27.307-27.559-0.137-52.333-16.835-62.805-42.325l-346.795-43.008c-18.848 0-34.133-15.285-34.133-34.133s15.285-34.133 34.133-34.133l356.352 44.373c5.236-6.847 11.721-12.636 19.115-17.067v-163.84h-341.333c-37.704 0-68.267-30.563-68.267-68.267v-477.867c0-37.704 30.563-68.267 68.267-68.267h750.933c37.704 0 68.267 30.563 68.267 68.267v477.867c0 37.704-30.563 68.267-68.267 68.267zM477.867 204.8h-273.067v273.067h273.067v-273.067zM819.2 204.8h-273.067v273.067h273.067v-273.067z" />
<glyph unicode="&#xe901;" glyph-name="airfield" d="M465.456 909.189h-139.639c-46.544 0-46.544 46.544 0 46.544h372.361c46.544 0 46.544-46.544 0-46.544h-139.633c0 0 55.856-40.339 55.856-133.427v-93.095h409.6v-136.533l-409.6-136.533-34.133-341.333 170.667-89.989v-46.544h-477.867v46.544l170.667 89.989-34.133 341.333-409.6 136.533v136.533h409.6v93.088c0 93.095 55.856 133.434 55.856 133.434z" />
<glyph unicode="&#xe902;" glyph-name="airport" d="M1024 490.277v-114.811l-443.733 68.267-21.722-325.816 192.389-117.917v-68.267l-238.933 46.544-238.933-46.544v68.267l192.389 117.917-21.722 325.816-443.733-68.267v114.811l443.733 158.256v204.8c0 0 0 102.4 68.267 102.4s68.267-102.4 68.267-102.4v-192.389l443.733-170.667z" />
<glyph unicode="&#xe903;" glyph-name="alcohol-shop" d="M955.733 682.666h-273.067v-234.837c0 0 0 0 0-4.096 0.205-62.095 42.278-116.231 102.4-131.755v-243.712h-34.133c-18.848 0-34.133-15.285-34.133-34.133s15.285-34.133 34.133-34.133h136.533c18.848 0 34.133 15.285 34.133 34.133s-15.285 34.133-34.133 34.133h-34.133v243.712c60.122 15.524 102.195 69.659 102.4 131.755 0 0 0 0 0 4.096v0 234.837zM887.467 443.733c0-37.704-30.563-68.267-68.267-68.267s-68.267 30.563-68.267 68.267v170.667h136.533v-170.667zM375.467 785.066v34.133c18.848 0 34.133 15.285 34.133 34.133s-15.285 34.133-34.133 34.133v34.133c0 18.848-15.285 34.133-34.133 34.133h-68.267c-18.848 0-34.133-15.285-34.133-34.133v-34.133c-18.848 0-34.133-15.285-34.133-34.133s15.285-34.133 34.133-34.133v-34.133c0-97.621-170.667-209.579-170.667-307.2v-409.6c0-37.704 30.563-68.267 68.267-68.267h341.333c36.304 3.174 65.092 31.962 68.267 68.267v409.6c0 92.16-170.667 215.040-170.667 307.2zM307.2 136.533c-94.256 0-170.667 76.411-170.667 170.667s76.411 170.667 170.667 170.667 170.667-76.411 170.667-170.667-76.411-170.667-170.667-170.667z" />
<glyph unicode="&#xe904;" glyph-name="america-football" d="M514.048 750.933c-303.104 0-445.781-307.2-445.781-307.2s142.677-307.2 445.781-307.2 441.685 307.2 441.685 307.2-136.533 307.2-441.685 307.2zM750.933 477.866v-102.4c0-18.848-15.285-34.133-34.133-34.133s-34.133 15.285-34.133 34.133v34.133h-136.533v-34.133c0-18.848-15.285-34.133-34.133-34.133s-34.133 15.285-34.133 34.133v34.133h-136.533v-34.133c0-18.848-15.285-34.133-34.133-34.133s-34.133 15.285-34.133 34.133v136.533c0 18.848 15.285 34.133 34.133 34.133s34.133-15.285 34.133-34.133v-34.133h136.533v34.133c0 18.848 15.285 34.133 34.133 34.133s34.133-15.285 34.133-34.133v-34.133h136.533v34.133c0 18.848 15.285 34.133 34.133 34.133s34.133-15.285 34.133-34.133v-34.133z" />
<glyph unicode="&#xe905;" glyph-name="amusement-park" d="M512 955.733c-244.463 0-443.733-199.27-443.733-443.733 0-158.112 83.633-296.851 208.664-375.467h-3.864l-68.267-136.533h614.4l-68.267 136.533h-3.864c125.030 78.616 208.664 217.354 208.664 375.467 0 244.463-199.27 443.733-443.733 443.733zM503.467 852.93v-238.933c-21.217-1.775-41.349-10.117-57.603-23.866l-168.933 168.933c59.235 56.347 138.479 91.703 226.536 93.867zM520.533 852.93c88.057-2.164 167.301-37.519 226.536-93.867l-168.933-168.933c-0.048 0.048-0.089 0.089-0.137 0.137-16.234 13.674-36.318 21.968-57.467 23.729v238.933zM264.936 747.069l168.933-168.933c-0.048-0.048-0.089-0.089-0.137-0.137-13.674-16.234-21.968-36.318-23.729-57.467h-238.933c2.164 88.057 37.519 167.301 93.867 226.536zM759.064 747.069c56.347-59.228 91.703-138.479 93.867-226.536h-238.933c-1.775 21.217-10.117 41.349-23.866 57.603l168.933 168.933zM171.069 503.466h238.933c1.775-21.217 10.117-41.349 23.866-57.603l-168.933-168.933c-56.347 59.235-91.703 138.479-93.867 226.536zM613.997 503.466h238.933c-2.164-88.057-37.519-167.301-93.867-226.536l-168.933 168.933c0.048 0.048 0.089 0.089 0.137 0.137 13.674 16.234 21.968 36.318 23.729 57.467zM445.863 433.868c0.048-0.048 0.089-0.089 0.137-0.137 9.448-7.912 20.241-14.056 31.867-18.132v-243.2c-77.844 7.673-147.497 41.697-200.936 92.535l168.933 168.933zM578.137 433.868l168.933-168.933c-53.439-50.838-123.085-84.855-200.936-92.535v243.2c11.68 4.103 22.528 10.295 32.003 18.268z" />
<glyph unicode="&#xe906;" glyph-name="aquarium" d="M744.107 163.84c-20.48 40.96-20.48 157.013 0 191.147 27.307 40.96 232.107-95.573 232.107-95.573 61.44-27.307 61.44 416.427 0 389.12 0 0-211.627-143.36-232.107-95.573s-20.48 143.36 0 191.147c20.48 40.96 279.893 47.787 279.893 47.787 0 47.787-197.973 95.573-279.893 95.573s-170.667-6.827-279.893-54.613c-109.227-40.96-197.973-109.227-279.893-191.147s-184.32-245.76-184.32-293.547 102.4-191.147 252.587-252.587 225.28-75.093 307.2-88.747c75.093-6.827 177.493 0 266.24 20.48 68.267 13.653 197.973 47.787 197.973 75.093 0 13.653-259.413 20.48-279.893 61.44zM307.2 320.853c-54.613 0-102.4 47.787-102.4 102.4s47.787 102.4 102.4 102.4 102.4-47.787 102.4-102.4-47.787-102.4-102.4-102.4z" />
<glyph unicode="&#xe907;" glyph-name="art-gallery" d="M731.136 682.666l-195.243 194.56c-13.278 13.387-34.884 13.476-48.271 0.198-0.068-0.068-0.13-0.13-0.198-0.198l-194.56-194.56h-190.464c-18.848 0-34.133-15.285-34.133-34.133v-614.4c0-18.848 15.285-34.133 34.133-34.133h819.2c18.848 0 34.133 15.285 34.133 34.133v614.4c0 18.848-15.285 34.133-34.133 34.133h-190.464zM512 804.864l122.197-122.197h-244.395l122.197 122.197zM887.467 68.266h-750.933v546.133h750.933v-546.133zM341.333 409.6c-37.704 0-68.267 30.563-68.267 68.267s30.563 68.267 68.267 68.267 68.267-30.563 68.267-68.267-30.563-68.267-68.267-68.267zM819.2 136.533h-512l102.4 204.8 85.333-170.667 153.6 307.2 170.667-341.333z" />
<glyph unicode="&#xe908;" glyph-name="attraction" d="M409.6 819.2c-37.82 0-51.35-34.441-68.267-68.267l-34.133-68.267h-136.533c-56.73 0-102.4-45.67-102.4-102.4v-341.333c0-56.73 45.67-102.4 102.4-102.4h682.667c56.73 0 102.4 45.67 102.4 102.4v341.333c0 56.73-45.67 102.4-102.4 102.4h-136.533l-34.133 68.267c-17.067 34.133-30.447 68.267-68.267 68.267h-204.8zM170.667 614.4c18.848 0 34.133-15.285 34.133-34.133s-15.285-34.133-34.133-34.133-34.133 15.285-34.133 34.133 15.285 34.133 34.133 34.133zM512 614.4c113.111 0 204.8-91.689 204.8-204.8s-91.689-204.8-204.8-204.8-204.8 91.689-204.8 204.8 91.689 204.8 204.8 204.8zM512 512c-56.552 0-102.4-45.848-102.4-102.4v0c0-56.552 45.848-102.4 102.4-102.4v0c56.552 0 102.4 45.848 102.4 102.4v0c0 56.552-45.848 102.4-102.4 102.4v0z" />
<glyph unicode="&#xe909;" glyph-name="bakery" d="M361.411 656.561l48.189-349.361c0 0 0-68.267 68.267-68.267h68.267c68.267 0 68.267 68.267 68.267 68.267l48.189 349.361c0 94.372-150.589 94.372-150.589 94.372s-150.801 0-150.589-94.372zM238.933 614.4c-102.4 0-102.4-68.267-102.4-68.267l68.267-273.067h102.4c51.541 0 54.211 52.204 54.211 52.204l-54.211 289.13h-68.267zM102.4 443.733c0 0-42.161 2.007-72.281-28.112-30.119-30.112-30.119-60.232-30.119-60.232v-150.589h60.239c76.295 0 76.295 68.267 76.295 68.267l-34.133 170.667zM785.067 614.4c102.4 0 102.4-68.267 102.4-68.267l-68.267-273.067h-102.4c-51.541 0-54.211 52.204-54.211 52.204l54.211 289.13h68.267zM921.6 443.733c0 0 42.161 2.007 72.281-28.112 30.119-30.112 30.119-60.232 30.119-60.232v-150.589h-60.239c-76.295 0-76.295 68.267-76.295 68.267l34.133 170.667z" />
<glyph unicode="&#xe90a;" glyph-name="bank" d="M68.267 750.933c-37.82 0-68.267-30.447-68.267-68.267v-477.867c0-37.82 30.447-68.267 68.267-68.267h887.467c37.82 0 68.267 30.447 68.267 68.267v477.867c0 37.82-30.447 68.267-68.267 68.267h-887.467zM68.267 682.666h102.4c18.848 0 34.133-15.285 34.133-34.133s-15.285-34.133-34.133-34.133-34.133 15.285-34.133 34.133l-34.133-34.133c18.848 0 34.133-15.285 34.133-34.133s-15.285-34.133-34.133-34.133-34.133 15.285-34.133 34.133v102.4zM512 682.666c94.256 0 170.667-106.974 170.667-238.933v0c0-131.959-76.411-238.933-170.667-238.933s-170.667 106.974-170.667 238.933 76.411 238.933 170.667 238.933zM853.333 682.666h102.4v-102.4c0-18.848-15.285-34.133-34.133-34.133s-34.133 15.285-34.133 34.133 15.285 34.133 34.133 34.133l-34.133 34.133c0-18.848-15.285-34.133-34.133-34.133s-34.133 15.285-34.133 34.133 15.285 34.133 34.133 34.133zM512 580.266c-22.050 0-36.427-7.427-46.531-17.067h93.068c-10.11 9.639-24.487 17.067-46.537 17.067zM452.267 546.133c-3.106-6.212-4.212-11.68-5.468-17.067h130.403c-1.256 5.386-2.362 10.854-5.468 17.067h-119.467zM443.733 512v-17.067h136.533v17.067h-136.533zM443.733 477.866v-17.067h136.533v17.067h-136.533zM443.733 443.733v-17.067h136.533v17.067h-136.533zM443.733 409.6l-17.067-17.067h136.533l17.067 17.067h-136.533zM409.6 375.466c0 0 2.41-6.991 6.936-17.067h155.197l-25.6 17.067h-136.533zM102.4 341.333c18.848 0 34.133-15.285 34.133-34.133s-15.285-34.133-34.133-34.133l34.133-34.133c0 18.848 15.285 34.133 34.133 34.133s34.133-15.285 34.133-34.133-15.285-34.133-34.133-34.133h-102.4v102.4c0 18.848 15.285 34.133 34.133 34.133zM425.868 341.333c3.133-5.844 5.195-10.854 9.332-17.067h154.801c4.547 9.414 7.332 17.067 7.332 17.067h-171.465zM921.6 341.333c18.848 0 34.133-15.285 34.133-34.133v-102.4h-102.4c-18.848 0-34.133 15.285-34.133 34.133s15.285 34.133 34.133 34.133 34.133-15.285 34.133-34.133l34.133 34.133c-18.848 0-34.133 15.285-34.133 34.133s15.285 34.133 34.133 34.133zM448.266 307.2c5.366-6.226 11.244-12.035 17.736-17.067h96.932c6.833 5.277 12.814 11.039 17.333 17.067h-132z" />
<glyph unicode="&#xe90b;" glyph-name="bar" d="M512 887.466c-136.533 0-477.867-17.067-443.733-51.2l409.6-426.667v-273.067c0-68.267-204.8-34.133-204.8-136.533h477.867c0 102.4-204.8 68.267-204.8 136.533v273.067l409.6 426.667c34.133 34.133-307.2 51.2-443.733 51.2zM512 819.2c170.667 0 324.267-17.067 324.267-17.067l-51.2-51.2h-546.133l-51.2 51.2c0 0 153.6 17.067 324.267 17.067z" />
<glyph unicode="&#xe90c;" glyph-name="barrier" d="M887.467 750.933h-750.933c-37.703 0-68.267-30.564-68.267-68.267v0-409.6c0-37.703 30.564-68.267 68.267-68.267v0h68.267v-170.667c0-18.851 15.282-34.133 34.133-34.133s34.133 15.282 34.133 34.133v0 34.133h477.867v-34.133c0-18.851 15.282-34.133 34.133-34.133s34.133 15.282 34.133 34.133v0 170.667h68.267c37.703 0 68.267 30.564 68.267 68.267v0 409.6c0 37.703-30.564 68.267-68.267 68.267v0zM887.467 682.666v-136.533l-136.533 136.533zM648.533 682.666l238.933-238.933v-170.667l-409.6 409.6zM375.467 273.066l-238.933 238.933v170.667l409.6-409.6zM136.533 273.066v136.533l136.533-136.533zM750.933 136.533h-477.867v68.267h477.867zM736.802 273.066h-88.269l-409.6 409.6h136.533l409.6-409.6z" />
<glyph unicode="&#xe90d;" glyph-name="baseball" d="M682.667 716.8c0-56.552-45.848-102.4-102.4-102.4s-102.4 45.848-102.4 102.4 45.848 102.4 102.4 102.4 102.4-45.848 102.4-102.4zM477.867 936.618c0 10.554-8.561 19.115-19.115 19.115 0 0 0 0 0 0-6.683-1.789-12.643-5.605-17.067-10.923l-168.619-302.421c-0.403-2.942-0.403-5.932 0-8.875 0-10.554 8.561-19.115 19.115-19.115 6.929 1.659 13.148 5.482 17.749 10.923l167.936 302.421c0.41 2.942 0.41 5.932 0 8.875zM880.64-13.654v0l-197.973 533.163c-3.236 15.517-16.916 26.631-32.768 26.624h-341.333c-18.848 0-34.133-15.285-34.133-34.133s15.285-34.133 34.133-34.133h169.301l98.987-171.349-291.499-314.709c-7.789-6.362-12.302-15.886-12.288-25.941 0-18.848 15.285-34.133 34.133-34.133 8.356 0.041 16.391 3.209 22.528 8.875v0l303.787 283.307 188.416-273.067c6.11-10.868 17.572-17.64 30.037-17.749 19.087-0.014 34.761 15.066 35.499 34.133-0.287 6.915-2.662 13.585-6.827 19.115z" />
<glyph unicode="&#xe90e;" glyph-name="basketball" d="M614.4 716.8c0-56.552-45.848-102.4-102.4-102.4s-102.4 45.848-102.4 102.4 45.848 102.4 102.4 102.4 102.4-45.848 102.4-102.4zM955.733 887.466c-37.704 0-68.267-30.563-68.267-68.267s30.563-68.267 68.267-68.267 68.267 30.563 68.267 68.267-30.563 68.267-68.267 68.267zM811.691 55.296l-197.291 246.443v210.261h34.133c11.394 0.123 21.941 6.042 27.989 15.701v0l132.437 165.205 4.096 5.461c3.83 5.4 5.967 11.817 6.144 18.432-0.259 18.848-15.756 33.915-34.604 33.655-9.107-0.123-17.783-3.884-24.105-10.445v0l-128.341-159.744h-256.683c-9.339-0.123-18.227-4.069-24.576-10.923v0l-136.533-173.397c-5.468-5.509-8.847-12.752-9.557-20.48 0-18.848 15.285-34.133 34.133-34.133 11.394 0.123 21.941 6.042 27.989 15.701v0l124.928 154.965h17.749v-210.261l-197.291-246.443c-4.724-5.796-7.366-13.005-7.509-20.48 0-18.848 15.285-34.133 34.133-34.133 11.394 0.123 21.941 6.042 27.989 15.701v0l204.8 257.365h78.507l204.8-257.365c6.048-9.66 16.596-15.578 27.989-15.701 18.848 0 34.133 15.285 34.133 34.133-0.143 7.475-2.785 14.684-7.509 20.48v0h2.048z" />
<glyph unicode="&#xe90f;" glyph-name="bbq" d="M636.245 433.152c106.373 37.342 179.343 136.834 182.955 249.515h-614.4c3.618-111.268 74.943-209.77 179.541-247.876l-48.265-96.461c-92.645 16.077-180.784-45.991-196.861-138.636s45.991-180.784 138.636-196.861c62.983-10.936 126.785 14.336 165.199 65.434h288.29l22.869-48.947c5.707-11.844 17.708-19.36 30.857-19.319 5.004-0.020 9.946 1.079 14.473 3.209 17.046 7.987 24.405 28.269 16.452 45.329l-179.746 384.614zM307.2 85.333c-47.131 0-85.333 38.202-85.333 85.333s38.202 85.333 85.333 85.333 85.333-38.202 85.333-85.333c-0.109-47.084-38.25-85.224-85.333-85.333zM474.453 136.533c14.104 68.745-15.483 139.087-74.479 177.084l50.586 101.239c39.39-7.113 79.735-7.113 119.125 0l129.707-277.845-224.939-0.478zM324.267 887.466c-9.428 0-17.067-7.639-17.067-17.067 0-34.133-34.133-34.133-34.133-34.133-68.267 0-68.267-68.267-68.267-68.267 0-9.428 7.639-17.067 17.067-17.067s17.067 7.639 17.067 17.067c0 34.133 34.133 34.133 34.133 34.133 68.267 0 68.267 68.267 68.267 68.267 0 9.428-7.639 17.067-17.067 17.067zM460.8 887.466c-9.428 0-17.067-7.639-17.067-17.067 0-34.133-34.133-34.133-34.133-34.133-68.267 0-68.267-68.267-68.267-68.267 0-9.428 7.639-17.067 17.067-17.067s17.067 7.639 17.067 17.067c0 34.133 34.133 34.133 34.133 34.133 68.267 0 68.267 68.267 68.267 68.267 0 9.428-7.639 17.067-17.067 17.067zM597.333 887.466c-9.428 0-17.067-7.639-17.067-17.067 0-34.133-34.133-34.133-34.133-34.133-68.267 0-68.267-68.267-68.267-68.267 0-9.428 7.639-17.067 17.067-17.067s17.067 7.639 17.067 17.067c0 34.133 34.133 34.133 34.133 34.133 68.267 0 68.267 68.267 68.267 68.267 0 9.428-7.639 17.067-17.067 17.067zM733.867 887.466c-9.428 0-17.067-7.639-17.067-17.067 0-34.133-34.133-34.133-34.133-34.133-68.267 0-68.267-68.267-68.267-68.267 0-9.428 7.639-17.067 17.067-17.067s17.067 7.639 17.067 17.067c0 34.133 34.133 34.133 34.133 34.133 68.267 0 68.267 68.267 68.267 68.267 0 9.428-7.639 17.067-17.067 17.067zM870.4 887.466c-9.428 0-17.067-7.639-17.067-17.067 0-34.133-34.133-34.133-34.133-34.133-68.267 0-68.267-68.267-68.267-68.267 0-9.428 7.639-17.067 17.067-17.067s17.067 7.639 17.067 17.067c0 34.133 34.133 34.133 34.133 34.133 68.267 0 68.267 68.267 68.267 68.267 0 9.428-7.639 17.067-17.067 17.067z" />
<glyph unicode="&#xe910;" glyph-name="beer" d="M819.2 614.4v204.8c0 0-68.267 68.267-307.2 68.267s-307.2-68.267-307.2-68.267v-204.8c1.966-94.993 25.3-188.32 68.267-273.067 42.701-97.949 42.701-209.251 0-307.2 0 0 0-68.267 238.933-68.267s238.933 68.267 238.933 68.267c-42.701 97.949-42.701 209.251 0 307.2 42.967 84.746 66.301 178.074 68.267 273.067zM512 34.133c-54.381-2.389-108.797 4.069-161.109 19.115 13.858 49.316 20.753 100.325 20.48 151.552h281.259c-0.273-51.227 6.622-102.236 20.48-151.552-52.313-15.046-106.728-21.504-161.109-19.115zM512 614.4c-80.992-2.041-161.751 9.496-238.933 34.133v136.533c77.21 24.501 157.949 36.031 238.933 34.133 80.985 1.898 161.724-9.632 238.933-34.133v-136.533c-77.182-24.637-157.942-36.175-238.933-34.133z" />
<glyph unicode="&#xe911;" glyph-name="bicycle" d="M512 819.2c-46.155 0.683-46.155-68.922 0-68.267h102.4v-86.398l-191.331-159.334-66.54 177.466h18.937c46.155-0.683 46.155 68.922 0 68.267h-136.533c-46.155 0.683-46.155-68.922 0-68.267h44.53l60.805-162.133c-31.935 15.879-67.386 25.6-105.335 25.6-131.557 0-238.933-107.377-238.933-238.933s107.377-238.933 238.933-238.933 238.933 107.377 238.933 238.933c0 45.732-13.674 88.139-36.134 124.532l192.532 160.399 31.601-79.203c-71.168-41.458-119.733-117.746-119.733-205.728 0-131.557 107.377-238.933 238.933-238.933s238.933 107.377 238.933 238.933-107.377 238.933-238.933 238.933c-19.326 0-37.847-2.963-55.869-7.332l-46.531 116.401v129.864c0 18.848-15.285 34.133-34.133 34.133h-136.533zM238.933 477.866c40.434 0 76.977-14.466 106.134-37.731l-128-106.667c-34.877-29.17 8.724-81.545 43.732-52.531l128 106.667c12.848-24.016 20.801-51.125 20.801-80.404 0-94.659-76.008-170.667-170.667-170.667s-170.667 76.008-170.667 170.667 76.001 170.667 170.667 170.667v0zM785.067 477.866c94.659 0 170.667-76.008 170.667-170.667s-76.008-170.667-170.667-170.667-170.667 76.008-170.667 170.667c0 59.87 30.502 112.101 76.8 142.534l62.136-155.197c16.794-42.537 80.582-17.073 63.468 25.334l-62 154.931c9.844 1.748 19.893 3.065 30.263 3.065v0z" />
<glyph unicode="&#xe912;" glyph-name="bicycle-share" d="M682.667 887.466c-37.704 0-68.267-30.563-68.267-68.267s30.563-68.267 68.267-68.267 68.267 30.563 68.267 68.267c0 37.704-30.563 68.267-68.267 68.267zM555.998 751.336c-8.875-0.034-17.388-3.529-23.736-9.735l-180.265-170.667c-15.401-14.527-14.001-39.424 2.935-52.135l122.935-92.133v-187.733c-0.683-46.162 68.922-46.162 68.267 0v204.8c0.020 10.745-5.018 20.869-13.599 27.334l-52.401 39.335 124.109 117.501 51.091-68.164c6.465-8.588 16.589-13.626 27.334-13.606h102.4c46.155-0.683 46.155 68.922 0 68.267h-85.333l-92.133 122.935c-6.151 8.438-15.831 13.599-26.269 14.001h-25.334zM204.8 477.866c-113.111 0-204.8-91.696-204.8-204.8s91.689-204.8 204.8-204.8 204.8 91.696 204.8 204.8-91.689 204.8-204.8 204.8zM819.2 477.866c-113.111 0-204.8-91.696-204.8-204.8s91.689-204.8 204.8-204.8 204.8 91.696 204.8 204.8-91.689 204.8-204.8 204.8zM204.8 409.6c75.407 0 136.533-61.126 136.533-136.533s-61.126-136.533-136.533-136.533-136.533 61.126-136.533 136.533 61.126 136.533 136.533 136.533zM819.2 409.6c75.407 0 136.533-61.126 136.533-136.533s-61.126-136.533-136.533-136.533-136.533 61.126-136.533 136.533 61.126 136.533 136.533 136.533z" />
<glyph unicode="&#xe913;" glyph-name="blood-bank" d="M764.587 471.040v0l-252.587 348.16-252.587-348.16c-34.133-47.787-54.613-109.227-54.613-170.667 0-163.84 136.533-300.373 307.2-300.373 0 0 0 0 0 0 170.667 0 307.2 136.533 307.2 300.373 0 0 0 0 0 0 0 61.44-20.48 122.88-54.613 170.667zM682.667 273.066h-136.533v-136.533h-68.267v136.533h-136.533v68.267h136.533v136.533h68.267v-136.533h136.533v-68.267z" />
<glyph unicode="&#xe914;" glyph-name="buddhism" d="M921.45 477.941h-36.379c-6.825 75.577-36.542 147.272-85.183 205.517l25.805 25.832c13.384 13.276 13.471 34.888 0.195 48.271-13.038 13.143-34.176 13.498-47.647 0.799v0l-26.624-26.644c-58.253 48.673-129.969 78.414-205.571 85.251v36.366c0 18.851-15.282 34.133-34.133 34.133s-34.133-15.282-34.133-34.133v-36.366c-75.578-6.851-147.269-36.592-205.503-85.251l-25.832 26.044c-13.649 13.003-35.254 12.481-48.258-1.167-12.561-13.184-12.561-33.907 0-47.090l25.832-25.771c-48.717-58.311-78.462-130.11-85.251-205.79h-36.366c-18.851 0-34.133-15.282-34.133-34.133s15.282-34.133 34.133-34.133h36.366c6.818-75.568 36.523-147.259 85.149-205.503l-25.798-25.798c-13.338-13.322-13.351-34.934-0.029-48.272 13.007-13.023 33.995-13.388 47.447-0.825l26.638 26.638c58.252-48.682 129.976-78.425 205.585-85.251v-36.379c0-18.851 15.282-34.133 34.133-34.133s34.133 15.282 34.133 34.133v36.379c75.584 6.844 147.281 36.585 205.517 85.251l25.798-25.798c13.322-13.338 34.934-13.351 48.272-0.029 13.023 13.007 13.388 33.995 0.825 47.447l-26.638 26.638c48.663 58.238 78.403 129.934 85.251 205.517h36.379c18.848 0.371 33.825 15.951 33.455 34.799-0.361 18.317-15.118 33.082-33.434 33.454zM546.045 747.486c57.256-6.313 111.536-28.777 156.508-64.771l-146.773-146.773c-3.183 1.488-6.442 2.81-9.762 3.959v207.585h0.027zM477.778 747.486v-207.565c-3.32-1.15-6.579-2.471-9.762-3.959l-146.773 146.773c44.986 35.994 99.281 58.451 156.549 64.751h-0.014zM272.978 634.456l146.773-146.773c-1.488-3.183-2.81-6.442-3.959-9.762h-207.544c6.31 57.266 28.777 111.557 64.778 156.535h-0.048zM208.247 409.688h207.565c1.152-3.32 2.473-6.578 3.959-9.762l-146.773-146.773c-35.995 44.98-58.453 99.271-64.751 156.535zM477.792 140.144c-57.256 6.313-111.536 28.777-156.508 64.771l146.773 146.773c3.183-1.488 6.442-2.81 9.762-3.959v-207.565l-0.027-0.020zM546.058 140.144v207.565c3.32 1.149 6.58 2.471 9.762 3.959l146.773-146.773c-44.984-35.997-99.28-58.455-156.549-64.751h0.014zM750.858 253.173l-146.773 146.773c1.486 3.184 2.808 6.442 3.959 9.762h207.633c-6.332-57.276-28.83-111.568-64.867-156.535h0.048zM608.024 477.941c-1.15 3.32-2.471 6.579-3.959 9.762l146.773 146.773c35.994-44.972 58.458-99.252 64.771-156.508l-207.585-0.027z" />
<glyph unicode="&#xe915;" glyph-name="building" d="M204.8 819.2v-750.933h341.333v204.8h204.8v-204.8h68.267v750.933h-614.4zM477.867 136.533h-204.8v136.533h204.8v-136.533zM477.867 341.333h-204.8v136.533h204.8v-136.533zM477.867 546.133h-204.8v136.533h204.8v-136.533zM750.933 341.333h-204.8v136.533h204.8v-136.533zM750.933 546.133h-204.8v136.533h204.8v-136.533z" />
<glyph unicode="&#xe916;" glyph-name="building-alt1" d="M750.933 34.133v614.4c0 20.48-13.653 34.133-34.133 34.133h-102.4v204.8l-273.067-75.093v-778.24h-204.8v-34.133h750.933v34.133h-136.533zM477.867 34.133v716.8h68.267v-716.8h-68.267z" />
<glyph unicode="&#xe917;" glyph-name="bus" d="M273.067 955.733c-93.088 0-204.8-50.743-204.8-187.467v-631.733c0 0 0-68.267 68.267-68.267v-68.267c0 0 0-68.267 68.267-68.267s68.267 68.267 68.267 68.267v68.267h477.867v-68.267c0 0 0-68.267 68.267-68.267s68.267 68.267 68.267 68.267v68.267c0 0 68.267 0 68.267 68.267v631.733c0 139.639-84.378 187.467-177.466 187.467h-505.201zM290.133 853.333h443.733c9.455 0 17.067-7.612 17.067-17.067s-7.612-17.067-17.067-17.067h-443.733c-9.455 0-17.067 7.612-17.067 17.067s7.612 17.067 17.067 17.067zM204.8 750.933h614.4c68.267 0 68.267-66 68.267-66v-207.066c0 0 0-68.267-68.267-68.267h-614.4c-68.267 0-68.267 68.267-68.267 68.267v204.8c0 0 0 68.267 68.267 68.267zM204.8 273.066c37.704 0 68.267-30.563 68.267-68.267s-30.563-68.267-68.267-68.267-68.267 30.563-68.267 68.267 30.563 68.267 68.267 68.267zM819.2 273.066c37.704 0 68.267-30.563 68.267-68.267s-30.563-68.267-68.267-68.267-68.267 30.563-68.267 68.267 30.563 68.267 68.267 68.267z" />
<glyph unicode="&#xe918;" glyph-name="cafe" d="M819.2 614.4h-136.533v136.533h-546.133v-273.067c0.908-150.808 123.897-272.323 274.705-271.415 96.29 0.58 185.153 51.828 233.882 134.881h174.080c75.407 0 136.533 61.126 136.533 136.533s-61.126 136.533-136.533 136.533zM819.2 409.6h-146.091c6.055 22.262 9.271 45.199 9.557 68.267v68.267h136.533c37.704 0 68.267-30.563 68.267-68.267s-30.563-68.267-68.267-68.267zM682.667 102.4c0-18.848-15.285-34.133-34.133-34.133h-477.867c-18.848 0-34.133 15.285-34.133 34.133s15.285 34.133 34.133 34.133h477.867c18.848 0 34.133-15.285 34.133-34.133z" />
<glyph unicode="&#xe919;" glyph-name="campsite" d="M477.867 853.333l-375.467-614.4h-34.133c-68.267 0-68.267-68.267-68.267-68.267v-68.267c0 0 0-68.267 68.267-68.267h887.467c68.267 0 68.267 68.267 68.267 68.267v68.267c0 0 0 68.267-68.267 68.267h-34.133l-375.467 614.4c-13.653 27.307-54.613 27.307-68.267 0zM512 614.4l218.453-375.467h-443.733l225.28 375.467z" />
<glyph unicode="&#xe91a;" glyph-name="car" d="M955.733 477.866c-0.273 47.131-32.679 87.989-78.507 98.987l-94.891 221.184c-5.236 12.745-17.62 21.094-31.403 21.163h-477.867c-12.807-0.232-24.405-7.612-30.037-19.115v0 0 0l-96.256-222.549c-46.080-11.059-78.548-52.285-78.507-99.669v-238.933h68.267v-68.267c0-37.704 30.563-68.267 68.267-68.267s68.267 30.563 68.267 68.267v68.267h477.867v-68.267c0-37.704 30.563-68.267 68.267-68.267s68.267 30.563 68.267 68.267v68.267h68.267v238.933zM293.547 750.933h436.907l71.68-170.667h-580.267l71.68 170.667zM204.8 341.333c-37.704 0-68.267 30.563-68.267 68.267s30.563 68.267 68.267 68.267 68.267-30.563 68.267-68.267-30.563-68.267-68.267-68.267zM819.2 341.333c-37.704 0-68.267 30.563-68.267 68.267s30.563 68.267 68.267 68.267 68.267-30.563 68.267-68.267-30.563-68.267-68.267-68.267z" />
<glyph unicode="&#xe91b;" glyph-name="castle" d="M750.933 682.666h-477.867c-37.704 0-68.267 30.563-68.267 68.267v170.667c0 18.848 15.285 34.133 34.133 34.133s34.133-15.285 34.133-34.133v-102.4h68.267v68.267c0 37.704 30.563 68.267 68.267 68.267s68.267-30.563 68.267-68.267v-68.267h68.267v68.267c0 37.704 30.563 68.267 68.267 68.267s68.267-30.563 68.267-68.267v-68.267h68.267v102.4c0 18.848 15.285 34.133 34.133 34.133s34.133-15.285 34.133-34.133v-170.667c0-37.704-30.563-68.267-68.267-68.267zM955.733-34.134c0-18.848-15.285-34.133-34.133-34.133h-819.2c-18.848 0-34.133 15.285-34.133 34.133s15.285 34.133 34.133 34.133h34.133c37.704 0 68.267 30.563 68.267 68.267 0 0 68.267 409.6 68.267 477.867 0 37.704 30.563 68.267 68.267 68.267h341.333c37.704 0 68.267-30.563 68.267-68.267 0-68.267 68.267-477.867 68.267-477.867 0-37.704 30.563-68.267 68.267-68.267h34.133c18.589 0.007 33.765-14.868 34.133-33.451v-0.683zM614.4 238.933c0 56.552-45.848 102.4-102.4 102.4s-102.4-45.848-102.4-102.4v-238.933h204.8v238.933z" />
<glyph unicode="&#xe91c;" glyph-name="cemetery" d="M782.336 136.533h-46.421l83.285 576.853c1.195 19.572-13.708 36.4-33.273 37.594-1.652 0.096-3.311 0.082-4.956-0.048h-80.555c0 62.805-83.968 136.533-187.733 136.533s-187.051-73.728-187.051-136.533h-83.968c-19.593 0.785-36.106-14.452-36.898-34.045-0.048-1.167-0.034-2.335 0.034-3.502l81.92-576.853h-44.373c-19.736 0.778-36.441-14.418-37.547-34.133v-102.4h614.4v103.083c-1.099 19.34-17.51 34.229-36.864 33.451zM307.2 614.4h409.6v-68.267h-409.6v68.267z" />
<glyph unicode="&#xe91d;" glyph-name="cinema" d="M955.733 443.733v-136.533c0-18.848-15.285-34.133-34.133-34.133s-34.133 15.285-34.133 34.133c0 0 4.096 34.133-68.267 34.133h-68.267v-170.667c0-18.848-15.285-34.133-34.133-34.133h-546.133c-18.848 0-34.133 15.285-34.133 34.133v273.067c0 18.848 15.285 34.133 34.133 34.133h546.133c18.848 0 34.133-15.285 34.133-34.133v-34.133h68.267c72.363 0 68.267 34.133 68.267 34.133 0 18.848 15.285 34.133 34.133 34.133s34.133-15.285 34.133-34.133zM273.067 750.933c-75.407 0-136.533-61.126-136.533-136.533s61.126-136.533 136.533-136.533 136.533 61.126 136.533 136.533-61.126 136.533-136.533 136.533zM273.067 546.133c-37.704 0-68.267 30.563-68.267 68.267s30.563 68.267 68.267 68.267 68.267-30.563 68.267-68.267-30.563-68.267-68.267-68.267zM580.267 819.2c-94.256 0-170.667-76.411-170.667-170.667s76.411-170.667 170.667-170.667 170.667 76.411 170.667 170.667-76.411 170.667-170.667 170.667zM580.267 546.133c-56.552 0-102.4 45.848-102.4 102.4s45.848 102.4 102.4 102.4 102.4-45.848 102.4-102.4-45.848-102.4-102.4-102.4z" />
<glyph unicode="&#xe91e;" glyph-name="circle" d="M955.733 443.733c0-245.071-198.663-443.733-443.733-443.733s-443.733 198.663-443.733 443.733 198.663 443.733 443.733 443.733 443.733-198.663 443.733-443.733z" />
<glyph unicode="&#xe91f;" glyph-name="circle-stroked" d="M512 955.733c282.774 0 512-229.226 512-512s-229.226-512-512-512-512 229.226-512 512 229.226 512 512 512zM512 841.96c-219.935 0-398.22-178.292-398.22-398.227s178.285-398.227 398.22-398.227 398.22 178.292 398.22 398.227-178.285 398.227-398.22 398.227z" />
<glyph unicode="&#xe920;" glyph-name="city" d="M930.939 682.707h-111.869v180.128c-0.004 13.607-11.037 24.635-24.644 24.631v0h-18.978c-13.607 0-24.637-11.031-24.637-24.637v0-180.122h-111.834c-13.607 0-24.637-11.031-24.637-24.637v0 0-384.894h-248.286c-13.682 0-24.774-11.092-24.774-24.774v-223.539c0.038-13.655 11.119-24.706 24.774-24.706h564.886c13.607 0 24.637 11.031 24.637 24.637v0 633.296c0 13.607-11.031 24.637-24.637 24.637v0-0.020zM477.792 136.663h-68.267v68.267h68.267v-68.267zM614.325 136.663h-68.267v68.267h68.267v-68.267zM750.858 136.663h-68.267v68.267h68.267v-68.267zM750.858 273.196h-68.267v68.267h68.267v-68.267zM750.858 409.729h-68.267v68.267h68.267v-68.267zM750.858 546.263h-68.267v68.267h68.267v-68.267zM887.392 136.731h-68.267v68.267h68.267v-68.267zM887.392 273.264h-68.267v68.267h68.267v-68.267zM887.392 409.798h-68.267v68.267h68.267v-68.267zM887.392 546.331h-68.267v68.267h68.267v-68.267zM546.045 862.836c-0.004 13.604-11.033 24.631-24.637 24.631h-155.498c-13.607 0-24.637-11.031-24.637-24.637v0-111.896h-111.896c-13.559-0.033-24.543-11.017-24.576-24.576v0-43.65h-111.903c-13.596-0.003-24.619-11.021-24.631-24.617v0-633.276c0-13.607 11.031-24.637 24.637-24.637h180.122v341.251h273.019v521.407zM204.8 136.663h-68.267v68.267h68.267v-68.267zM204.8 273.196h-68.267v68.267h68.267v-68.267zM204.8 409.729h-68.267v68.267h68.267v-68.267zM204.8 546.263h-68.267v68.267h68.267v-68.267zM341.333 409.729h-68.267v68.267h68.267v-68.267zM341.333 546.263h-68.267v68.267h68.267v-68.267zM477.867 409.729h-68.267v68.267h68.267v-68.267zM477.867 546.263h-68.267v68.267h68.267v-68.267zM477.867 682.796h-68.267v68.137h68.267v-68.137z" />
<glyph unicode="&#xe921;" glyph-name="clothing-store" d="M238.933 887.466l-238.933-204.8v-204.8h197.973l6.827-477.867h614.4v477.867h204.8v204.8l-238.933 204.8h-102.4l-170.667-273.067-170.667 273.067h-102.4z" />
<glyph unicode="&#xe922;" glyph-name="college" d="M512 887.466l-512-238.933 136.533-61.44v-116.053c-40.96-13.653-68.267-54.613-68.267-95.573s27.307-81.92 68.267-95.573v-6.827l-61.44-143.36c-20.48-61.44-6.827-129.707 95.573-129.707s116.053 68.267 95.573 129.707l-61.44 143.36c40.96 20.48 68.267 54.613 68.267 102.4s-27.307 81.92-68.267 95.573v81.92l307.2-143.36 512 238.933-512 238.933zM812.373 443.733l-307.2-136.533-163.84 75.093v-6.827c0-47.787-20.48-88.747-54.613-122.88l40.96-95.573v-6.827c6.827-27.307 13.653-54.613 6.827-81.92 47.787-20.48 102.4-34.133 170.667-34.133 225.28 0 307.2 136.533 307.2 204.8v204.8z" />
<glyph unicode="&#xe923;" glyph-name="commercial" d="M955.733 477.866h-887.467c6.014 94.406 29.15 186.935 68.267 273.067h750.933c39.124-86.132 62.252-178.661 68.267-273.067zM204.8 409.6h614.4v-409.6h-68.267v341.333h-204.8v-341.333h-341.333v409.6zM273.067 204.8h204.8v136.533h-204.8v-136.533z" />
<glyph unicode="&#xe924;" glyph-name="cricket" d="M546.133 853.333c0-56.552-45.848-102.4-102.4-102.4s-102.4 45.848-102.4 102.4 45.848 102.4 102.4 102.4 102.4-45.848 102.4-102.4zM742.741 465.578v0l-136.533 136.533c-6.724 8.083-16.8 12.616-27.307 12.288h-322.901c-25.696 0.58-47.732-18.22-51.2-43.691v0l-68.267-525.653c-0.464-3.168-0.464-6.39 0-9.557 0-18.848 15.285-34.133 34.133-34.133 15.367-1.044 29.457 8.54 34.133 23.211v0l81.92 265.557 17.749 56.661 27.307-30.037 77.824-84.651v-197.973c0-18.848 15.285-34.133 34.133-34.133s34.133 15.285 34.133 34.133v204.8c-0.553 5.379-2.43 10.54-5.461 15.019v0l-98.304 121.515 68.267 170.667h116.736l136.533-125.611c6.335-7.352 15.551-11.585 25.259-11.605 17.497 2.109 30.515 17.196 30.037 34.816-0.020 8.028-2.929 15.783-8.192 21.845zM955.733 186.368c-28.276 0-51.2-22.924-51.2-51.2s22.924-51.2 51.2-51.2 51.2 22.924 51.2 51.2-22.924 51.2-51.2 51.2zM734.549 290.816v50.517c0 9.428-7.639 17.067-17.067 17.067s-17.067-7.639-17.067-17.067v-50.517c-10.39-5.837-16.889-16.759-17.067-28.672v-228.011c0-18.848 15.285-34.133 34.133-34.133s34.133 15.285 34.133 34.133v228.011c-0.177 11.913-6.676 22.835-17.067 28.672z" />
<glyph unicode="&#xe925;" glyph-name="cross" d="M180.224 869.034l331.776-331.776 330.411 330.411c11.701 12.452 27.969 19.599 45.056 19.797 37.704 0 68.267-30.563 68.267-68.267 0.321-16.916-6.349-33.219-18.432-45.056l-333.824-330.411 333.824-333.824c11.25-11.005 17.852-25.914 18.432-41.643 0-37.704-30.563-68.267-68.267-68.267-17.592-0.73-34.679 5.96-47.104 18.432l-328.363 331.776-331.093-331.093c-11.653-12.035-27.628-18.917-44.373-19.115-37.704 0-68.267 30.563-68.267 68.267-0.321 16.916 6.349 33.219 18.432 45.056l333.824 330.411-333.824 333.824c-11.25 11.005-17.852 25.914-18.432 41.643 0 37.704 30.563 68.267 68.267 68.267 16.411-0.198 32.092-6.813 43.691-18.432z" />
<glyph unicode="&#xe926;" glyph-name="dam" d="M951.637 307.2c0-18.848-15.285-34.133-34.133-34.133v0c-17.681-1.495-34.092-9.824-45.739-23.211-18.528-19.709-42.155-33.888-68.267-40.96-41.745-12.397-86.931-2.895-120.149 25.259l-26.624 23.893c-20.316 20.739-53.596 21.074-74.336 0.758-0.253-0.253-0.505-0.505-0.758-0.758-9.557-8.192-18.432-17.067-28.672-25.259-49.684-39.485-120.579-37.472-167.936 4.779l-23.211 22.528-6.827 4.096 20.48-83.285 33.451-136.533c5.659-17.981-4.328-37.144-22.303-42.81-3.604-1.133-7.373-1.659-11.148-1.563h-273.067c-18.848 0-34.133 15.285-34.133 34.133v819.2c0 18.848 15.285 34.133 34.133 34.133h75.093c16.015 0.075 29.928-10.998 33.451-26.624l62.123-250.539v-9.557c44.844 21.436 98.038 15.053 136.533-16.384 10.923-8.875 21.163-19.115 32.085-27.989 19.436-17.381 48.831-17.381 68.267 0 10.923 8.875 21.163 19.115 32.085 27.989 48.305 40.742 118.948 40.742 167.253 0 10.24-8.875 19.797-18.432 30.037-26.624 19.436-17.381 48.831-17.381 68.267 0l32.085 27.989c21.593 18.241 48.872 28.378 77.141 28.672v0c18.848 0 34.133-15.285 34.133-34.133s-15.285-34.133-34.133-34.133v0c-17.681-1.495-34.092-9.824-45.739-23.211-18.528-19.709-42.155-33.888-68.267-40.96-41.745-12.397-86.931-2.895-120.149 25.259l-22.528 23.211c-20.316 20.739-53.596 21.074-74.336 0.758-0.253-0.253-0.505-0.505-0.758-0.758-9.557-8.192-18.432-17.067-28.672-25.259-49.684-39.485-120.579-37.472-167.936 4.779l-26.624 23.211c-19.436 17.381-48.831 17.381-68.267 0l-4.096-3.413 47.104-188.416c26.801-1.98 52.326-12.24 73.045-29.355 10.923-8.875 21.163-19.115 32.085-27.989 19.436-17.381 48.831-17.381 68.267 0 10.923 8.875 21.163 19.115 32.085 27.989 48.305 40.742 118.948 40.742 167.253 0 10.24-8.875 19.797-18.432 30.037-26.624 19.436-17.381 48.831-17.381 68.267 0l32.085 27.989c21.688 17.995 48.961 27.887 77.141 27.989v0c18.848 0.375 34.434-14.595 34.809-33.444 0.007-0.232 0.007-0.457 0.007-0.689z" />
<glyph unicode="&#xe927;" glyph-name="danger" d="M951.637-46.422c-5.113-13.244-17.886-21.948-32.085-21.845-4.062-0.73-8.226-0.73-12.288 0l-395.264 166.571-395.947-166.571c-17.558-6.861-37.356 1.816-44.209 19.374-0.055 0.143-0.109 0.28-0.164 0.423-8.813 16.664-2.444 37.321 14.227 46.128 1.782 0.942 3.645 1.727 5.571 2.342l331.093 136.533-331.093 136.533c-18.036 5.482-28.215 24.549-22.733 42.585s24.549 28.215 42.585 22.733c1.618-0.492 3.195-1.106 4.724-1.83l395.947-164.523 395.947 164.523c17.026 8.090 37.39 0.847 45.479-16.179s0.847-37.39-16.179-45.479c-1.529-0.73-3.106-1.338-4.724-1.83l-331.776-136.533 331.093-136.533c17.797-6.212 27.191-25.675 20.985-43.472-0.348-1.004-0.744-1.987-1.188-2.949zM819.2 666.965v-30.72c-0.143-14.534-4.929-28.645-13.653-40.277-38.134-42.209-79.196-81.674-122.88-118.101v-79.189c0.102-14.199-8.602-26.972-21.845-32.085l-147.456-59.392h-4.779l-148.139 59.392c-12.179 5.953-19.681 18.541-19.115 32.085v79.189c-44.182 36.352-85.702 75.824-124.245 118.101-8.24 11.796-12.541 25.894-12.288 40.277v30.72c11.394 151.436 129.529 273.019 280.576 288.768h51.2c151.975-14.548 271.346-136.513 282.624-288.768zM409.6 682.666c0 37.704-30.563 68.267-68.267 68.267s-68.267-30.563-68.267-68.267 30.563-68.267 68.267-68.267 68.267 30.563 68.267 68.267zM477.867 477.866c0 18.848-15.285 34.133-34.133 34.133s-34.133-15.285-34.133-34.133v-34.133c0-18.848 15.285-34.133 34.133-34.133s34.133 15.285 34.133 34.133v34.133zM614.4 477.866c0 18.848-15.285 34.133-34.133 34.133s-34.133-15.285-34.133-34.133v-34.133c0-18.848 15.285-34.133 34.133-34.133s34.133 15.285 34.133 34.133v34.133zM750.933 682.666c0 37.704-30.563 68.267-68.267 68.267s-68.267-30.563-68.267-68.267 30.563-68.267 68.267-68.267 68.267 30.563 68.267 68.267z" />
<glyph unicode="&#xe928;" glyph-name="defibrillator" d="M105.813 523.052c-162.939 313.788 247.808 522.984 406.323 209.196 158.481 313.788 569.255 104.598 406.344-209.196-5.932-11.407-13.844-23.593-21.258-35.581h-123.419l-123.87 185.795c-7.764 11.517-20.761 18.991-35.503 18.991-17.859 0-33.156-10.969-39.522-26.537l-0.103-0.285-112.531-281.259-90.795 90.795c-7.718 7.712-18.374 12.484-30.145 12.493h-214.284c-7.414 11.994-15.326 24.18-21.238 35.587zM750.933 402.131c-14.751 0.005-27.755 7.48-35.436 18.847l-0.096 0.151-91.532 137.291-106.407-266.022c-5.379-13.204-16.812-22.955-30.756-25.892l-0.278-0.049c-2.521-0.547-5.416-0.861-8.385-0.861-0.062 0-0.124 0-0.185 0h0.010c-0.008 0-0.017 0-0.026 0-11.767 0-22.422 4.763-30.142 12.466l-124.033 124.067h-136.902c95.528-116.115 195.132-220.331 301.912-316.751l2.557-2.273c5.596-5.068 13.055-8.17 21.238-8.17s15.642 3.102 21.265 8.194l-0.027-0.024c108.94 98.756 208.327 202.96 299.769 313.956l4.052 5.068h-86.596z" />
<glyph unicode="&#xe929;" glyph-name="dentist" d="M297.643 0c-68.267 0-38.229 182.272-58.709 341.333-6.827 51.883-68.267 101.717-76.459 140.629-25.941 132.437-67.584 375.467 87.381 405.504s159.744-136.533 264.875-136.533 107.179 161.109 262.827 136.533 108.544-266.24 88.064-402.773c-6.827-30.72-75.093-101.035-80.555-140.629-22.528-163.84 21.845-341.333-54.613-341.333-63.488 0-90.112 185.685-136.533 307.2-18.432 56.661-43.691 99.669-79.189 99.669-105.131 0-122.197-409.6-217.088-409.6z" />
<glyph unicode="&#xe92a;" glyph-name="doctor" d="M375.467 477.866c-94.256 0-170.667 76.411-170.667 170.667v0 136.533c0 18.848 15.285 34.133 34.133 34.133h34.133c18.848 0 34.133 15.285 34.133 34.133s-15.285 34.133-34.133 34.133h-34.133c-56.552 0-102.4-45.848-102.4-102.4v-136.533c0.089-78.275 38.625-151.518 103.083-195.925v0c61.652-54.354 98.4-131.55 101.717-213.675 0-131.959 106.974-238.933 238.933-238.933s238.933 106.974 238.933 238.933v38.912c73.011 18.848 116.913 93.321 98.065 166.332-18.855 73.011-93.321 116.913-166.332 98.065-73.011-18.855-116.913-93.321-98.065-166.332 12.418-48.094 49.971-85.647 98.065-98.065v-38.912c0-94.256-76.411-170.667-170.667-170.667s-170.667 76.411-170.667 170.667c3.488 82.227 40.496 159.444 102.4 213.675v0c64.198 44.564 102.468 117.774 102.4 195.925v136.533c0 56.552-45.848 102.4-102.4 102.4h-34.133c-18.848 0-34.133-15.285-34.133-34.133s15.285-34.133 34.133-34.133h34.133c18.848 0 34.133-15.285 34.133-34.133v-136.533c0-94.256-76.411-170.667-170.667-170.667zM785.067 341.333c-37.704 0-68.267 30.563-68.267 68.267s30.563 68.267 68.267 68.267 68.267-30.563 68.267-68.267-30.563-68.267-68.267-68.267z" />
<glyph unicode="&#xe92b;" glyph-name="dog-park" d="M703.2 872.4c-26.371 0-47.84 1.413-54.667-53.2l-27.333-172.133 163.867-135.067h136.533c95.573 0 102.4 65.467 102.4 65.467l-129.733 151.467c-47.787 47.787-95.547 56.133-143.333 56.133v34.133c0 0 4.607 53.207-47.733 53.2zM324.267 853.333c0 0-64.907-1.407-105.867-15.067-40.96-13.653-81.867-61.467-81.867-129.733v-266.267c0-116.053-47.787-135.067-68.267-135.067 0 0-68.267-1.467-68.267-69.733v-150.133c0 0 0.053-54.667 54.667-54.667h81.867v47.733c0 27.307-13.653 41.040-34.133 47.867v75.067c68.267 0 75.093 13.707 102.4 20.533l37.6-150c6.827-20.48 13.653-34.107 34.133-40.933h68.267l64.8 1.2v54.667c0 46.176-68.267 47.733-68.267 47.733v170.667h238.933l47.733-178.933c27.307-95.573 88.8-94.133 88.8-94.133h102.4v54.667c0 48.592-68.267 47.733-68.267 47.733l6.8 278.4-211.6 165.333h-307.2v136.533c0 27.307 18.876 33.772 34.133 34.133 33.731 0.806 51.2 0 51.2 0 28.276 0 51.2 22.924 51.2 51.2s-22.924 51.2-51.2 51.2zM802.133 682.666c9.428 0 17.067-7.639 17.067-17.067s-7.639-17.067-17.067-17.067c-9.428 0-17.067 7.639-17.067 17.067s7.639 17.067 17.067 17.067z" />
<glyph unicode="&#xe92c;" glyph-name="drinking-water" d="M409.6 887.466c-75.405 0-136.533-61.128-136.533-136.533v0-238.933c0-18.851 15.282-34.133 34.133-34.133v0h136.533c18.851 0 34.133 15.282 34.133 34.133v0 136.533c0 18.851 15.282 34.133 34.133 34.133v0h443.733v204.8h-546.133zM477.867-68.267h-204.8c-15.792 0.176-28.996 11.049-32.717 25.705l-0.051 0.236-103.765 409.6c-0.636 2.464-1.001 5.293-1.001 8.207 0 18.851 15.282 34.133 34.133 34.133 0.352 0 0.703-0.005 1.052-0.016l-0.051 0.001h409.6c0.298 0.009 0.649 0.015 1.001 0.015 18.851 0 34.133-15.282 34.133-34.133 0-2.914-0.365-5.743-1.052-8.443l0.051 0.236-102.4-409.6c-3.798-15.019-17.191-25.956-33.139-25.956-0.35 0-0.698 0.005-1.045 0.016l0.051-0.001zM249.173 204.8h253.269l34.133 136.533h-322.219z" />
<glyph unicode="&#xe92d;" glyph-name="embassy" d="M453.973 819.2c-83.285 0-148.139-94.208-173.397-124.245-5.018-6.158-7.68-13.906-7.509-21.845v-300.373c-0.792-16.568 12.001-30.645 28.57-31.437 7.475-0.355 14.814 2.089 20.582 6.861 31.846 42.762 79.114 71.414 131.755 79.872 96.256 0 133.12-86.699 233.472-86.699 67.912 6.663 132.54 32.468 186.368 74.411 8.684 6.376 13.763 16.534 13.653 27.307v345.429c1.877 16.48-9.96 31.369-26.447 33.246-5.42 0.614-10.916-0.259-15.879-2.526-46.51-35.581-100.393-60.307-157.696-72.363-100.352-1.365-133.12 72.363-233.472 72.363zM170.667 750.933c-37.704 0-68.267 30.563-68.267 68.267s30.563 68.267 68.267 68.267 68.267-30.563 68.267-68.267-30.563-68.267-68.267-68.267zM204.8 682.666v-647.168c0-18.848-15.285-34.133-34.133-34.133s-34.133 15.285-34.133 34.133v647.168c0 18.848 15.285 34.133 34.133 34.133s34.133-15.285 34.133-34.133z" />
<glyph unicode="&#xe92e;" glyph-name="emergency-phone" d="M537.6 171.349c6.296-6.275 14.983-10.155 24.576-10.155s18.28 3.88 24.577 10.156l49.151 49.151 148.821-147.456-25.259-25.259c-25.005-26.64-59.314-44.29-97.715-47.744l-0.589-0.043h-98.645c-39.245 3.323-73.821 21.006-98.912 47.706l-0.075 0.080-346.112 346.112c-27.293 24.993-45.448 59.575-49.105 98.375l-0.047 0.611v98.987c3.704 39.412 21.859 73.994 49.037 98.883l0.115 0.104 24.576 24.576 148.821-148.139-49.835-49.835c-6.275-6.296-10.155-14.983-10.155-24.576s3.88-18.28 10.156-24.577l-0.001 0.001zM859.819 145.408c13.1 12.463 21.248 30.026 21.248 49.493 0 18.245-7.157 34.817-18.817 47.064l0.027-0.028-51.61 51.61c-12.463 13.1-30.026 21.248-49.493 21.248-18.245 0-34.817-7.157-47.064-18.817l0.028 0.027-2.458-2.458zM362.837 640.341c13.1 12.463 21.248 30.026 21.248 49.493 0 18.245-7.157 34.817-18.817 47.064l0.027-0.028-51.61 51.61c-12.463 13.1-30.026 21.248-49.493 21.248-18.245 0-34.817-7.157-47.064-18.817l0.028 0.027-2.799-2.458zM682.667 819.2v-136.533h-136.533v-68.267h136.533v-136.533h68.267v136.533h136.533v68.267h-136.533v136.533z" />
<glyph unicode="&#xe92f;" glyph-name="entrance" d="M477.867 512v68.267c0 37.704-30.563 68.267-68.267 68.267s-68.267-30.563-68.267-68.267v-204.8l136.533 136.533zM317.44 234.837l23.893 516.096c0 37.704 30.563 68.267 68.267 68.267s68.267-30.563 68.267-68.267-30.563-68.267-68.267-68.267-68.267 30.563-68.267 68.267l-23.893-516.096zM955.733 546.133v0c0-37.704-30.563-68.267-68.267-68.267h-107.861c-18.145 0.102-35.587-7.018-48.469-19.797l-370.005-370.005c-12.718-12.609-29.88-19.722-47.787-19.797h-176.811c-37.704 0-68.267 30.563-68.267 68.267v0c0 37.704 30.563 68.267 68.267 68.267h108.544c17.906 0.075 35.069 7.188 47.787 19.797l370.005 370.005c12.882 12.78 30.324 19.9 48.469 19.797h176.128c37.704 0 68.267-30.563 68.267-68.267z" />
<glyph unicode="&#xe930;" glyph-name="entrance-alt1" d="M447.42 297.711c-5.928-6.132-9.582-14.496-9.582-23.713 0-18.851 15.282-34.133 34.133-34.133 9.217 0 17.581 3.653 23.722 9.591l-0.010-0.009 182.067 182.75c3.098 3.090 5.014 7.363 5.014 12.083s-1.916 8.993-5.014 12.083v0l-182.067 182.682c-6.132 5.928-14.496 9.582-23.713 9.582-18.851 0-34.133-15.282-34.133-34.133 0-9.217 3.653-17.581 9.591-23.722l-0.009 0.010 112.367-112.913h-457.387c-18.851 0-34.133-15.282-34.133-34.133s15.282-34.133 34.133-34.133v0h457.387zM819.2 887.466h-443.733c-18.851 0-34.133-15.282-34.133-34.133s15.282-34.133 34.133-34.133v0h409.6c18.851 0 34.133-15.282 34.133-34.133v0-682.667c0-18.851-15.282-34.133-34.133-34.133v0h-426.667c-18.851 0-34.133-15.282-34.133-34.133s15.282-34.133 34.133-34.133v0h460.8c37.703 0 68.267 30.564 68.267 68.267v0 750.933c0 37.703-30.564 68.267-68.267 68.267v0z" />
<glyph unicode="&#xe931;" glyph-name="farm" d="M546.133 477.866l-204.8 136.533-204.8-136.533-68.267-136.533v-273.067h136.533v136.533h273.067v-136.533h136.533v273.067zM409.6 341.333h-136.533v136.533h136.533v-136.533zM955.733 68.266h-204.8v648.533c0 56.554 45.846 102.4 102.4 102.4s102.4-45.846 102.4-102.4v0-648.533z" />
<glyph unicode="&#xe932;" glyph-name="fast-food" d="M955.733 409.6c0-37.704-30.563-68.267-68.267-68.267h-750.933c-37.704 0-68.267 30.563-68.267 68.267s30.563 68.267 68.267 68.267h750.933c37.704 0 68.267-30.563 68.267-68.267zM238.933 273.066h-102.4c0-113.111 91.689-204.8 204.8-204.8h341.333c113.111 0 204.8 91.689 204.8 204.8h-648.533zM204.8 546.133h-68.267v136.533c0 75.407 61.126 136.533 136.533 136.533h477.867c75.407 0 136.533-61.126 136.533-136.533v-136.533h-682.667zM750.933 648.533c0-18.848 15.285-34.133 34.133-34.133s34.133 15.285 34.133 34.133-15.285 34.133-34.133 34.133-34.133-15.285-34.133-34.133zM614.4 716.8c0-18.848 15.285-34.133 34.133-34.133s34.133 15.285 34.133 34.133-15.285 34.133-34.133 34.133-34.133-15.285-34.133-34.133zM477.867 648.533c0-18.848 15.285-34.133 34.133-34.133s34.133 15.285 34.133 34.133-15.285 34.133-34.133 34.133-34.133-15.285-34.133-34.133zM341.333 716.8c0-18.848 15.285-34.133 34.133-34.133s34.133 15.285 34.133 34.133-15.285 34.133-34.133 34.133-34.133-15.285-34.133-34.133zM204.8 648.533c0-18.848 15.285-34.133 34.133-34.133s34.133 15.285 34.133 34.133-15.285 34.133-34.133 34.133-34.133-15.285-34.133-34.133z" />
<glyph unicode="&#xe933;" glyph-name="fence" d="M921.6 273.066h-34.133v204.8h34.133c18.851 0 34.133 15.282 34.133 34.133s-15.282 34.133-34.133 34.133v0h-34.133v136.533l-19.524 39.117c-3.020 5-8.425 8.291-14.599 8.291-6.004 0-11.282-3.113-14.306-7.814l-0.041-0.067-19.797-39.526v-136.533h-68.267v136.533l-19.524 39.117c-3.020 5-8.425 8.291-14.599 8.291-6.004 0-11.282-3.113-14.306-7.814l-0.041-0.067-19.797-39.526v-136.533h-68.267v136.533l-19.524 39.117c-3.020 5-8.425 8.291-14.599 8.291-6.004 0-11.282-3.113-14.306-7.814l-0.041-0.067-19.797-39.526v-136.533h-68.267v136.533l-19.524 39.117c-3.020 5-8.425 8.291-14.599 8.291-6.004 0-11.282-3.113-14.306-7.814l-0.041-0.067-19.797-39.526v-136.533h-68.267v136.533l-19.524 39.117c-3.020 5-8.425 8.291-14.599 8.291-6.004 0-11.282-3.113-14.306-7.814l-0.041-0.067-19.797-39.526v-136.533h-68.267v136.533l-19.524 39.117c-3.020 5-8.425 8.291-14.599 8.291-6.004 0-11.282-3.113-14.306-7.814l-0.041-0.067-19.797-39.526v-136.533h-34.133c-18.851 0-34.133-15.282-34.133-34.133s15.282-34.133 34.133-34.133v0h34.133v-204.8h-34.133c-18.851 0-34.133-15.282-34.133-34.133s15.282-34.133 34.133-34.133v0h34.133v-102.4c0-18.851 15.282-34.133 34.133-34.133s34.133 15.282 34.133 34.133v0 102.4h68.267v-102.4c0-18.851 15.282-34.133 34.133-34.133s34.133 15.282 34.133 34.133v0 102.4h68.267v-102.4c0-18.851 15.282-34.133 34.133-34.133s34.133 15.282 34.133 34.133v0 102.4h68.267v-102.4c0-18.851 15.282-34.133 34.133-34.133s34.133 15.282 34.133 34.133v0 102.4h68.267v-102.4c0-18.851 15.282-34.133 34.133-34.133s34.133 15.282 34.133 34.133v0 102.4h68.267v-102.4c0-18.851 15.282-34.133 34.133-34.133s34.133 15.282 34.133 34.133v0 102.4h34.133c18.851 0 34.133 15.282 34.133 34.133s-15.282 34.133-34.133 34.133v0zM204.8 273.066v204.8h68.267v-204.8zM341.333 273.066v204.8h68.267v-204.8zM477.867 273.066v204.8h68.267v-204.8zM614.4 273.066v204.8h68.267v-204.8zM750.933 273.066v204.8h68.267v-204.8z" />
<glyph unicode="&#xe934;" glyph-name="ferry" d="M363.861 204.8c46.046-0.614 90.535-16.725 126.293-45.739l17.749-15.701h3.413l21.163 19.115c67.017 55.398 162.406 60.389 234.837 12.288l154.283 303.104-102.4 68.267v242.347c-3.181 54.613-47.712 97.655-102.4 98.987h-34.133c2.342 35.362-24.433 65.925-59.795 68.267-2.819 0.184-5.652 0.184-8.472 0h-204.8c-35.362 2.342-65.925-24.433-68.267-59.795-0.184-2.819-0.184-5.652 0-8.472h-34.133c-54.688-1.331-99.219-44.373-102.4-98.987v-242.347l-102.4-68.267 153.6-309.248c31.696 22.248 69.161 34.816 107.861 36.181zM273.067 788.48c0.717 17.708 15.654 31.478 33.355 30.761 0.259-0.014 0.519-0.027 0.778-0.041h409.6c17.681 1.167 32.966-12.213 34.133-29.894 0.096-1.413 0.096-2.826 0-4.239v-204.8l-238.933 136.533-238.933-133.12c0 0 0 204.8 0 204.8zM955.733 68.266v-68.267c-17.927-1.324-34.604-9.667-46.421-23.211-18.548-19.681-42.175-33.853-68.267-40.96-41.964-12.39-87.347-2.901-120.832 25.259l-26.624 23.893c-20.774 20.657-54.32 20.657-75.093 0-9.557-8.192-18.432-17.067-28.672-25.259-50.026-39.977-121.61-37.956-169.301 4.779l-26.624 23.893c-19.552 17.080-48.715 17.080-68.267 0-12.971-10.24-24.576-21.845-37.547-32.085-48.080-35.601-114.224-33.915-160.427 4.096l-21.163 18.432c-9.878 11.312-23.402 18.801-38.229 21.163v68.267c17.647 2.185 35.533-1.154 51.2-9.557 18.992-11.756 37.028-24.992 53.931-39.595 14.001-15.258 35.137-21.777 55.296-17.067 7.68 2.273 14.862 5.98 21.163 10.923 10.923 8.192 19.797 17.749 30.72 26.624 48.51 40.195 118.743 40.195 167.253 0 10.923-8.875 21.163-19.115 32.085-27.989 19.552-17.080 48.715-17.080 68.267 0 10.923 8.875 21.163 19.115 32.085 27.989 48.626 40.571 119.31 40.571 167.936 0 10.24-8.875 19.797-18.432 30.037-26.624 19.552-17.080 48.715-17.080 68.267 0l32.085 27.989c21.811 17.695 49.056 27.341 77.141 27.307z" />
<glyph unicode="&#xe935;" glyph-name="fire-station" d="M512 921.6l-170.667-273.067-102.4 136.533c-37.874-66.58-184.074-224.761-184.074-396.192 0-252.477 204.67-457.141 457.141-457.141s457.141 204.663 457.141 457.141c0 171.431-146.2 329.612-184.074 396.192l-102.4-136.533-170.667 273.067zM512 477.866c0 0 170.667-174.886 170.667-307.2 0-57.146-56.381-136.533-170.667-136.533s-170.667 79.387-170.667 136.533c0 127.775 170.667 307.2 170.667 307.2z" />
<glyph unicode="&#xe936;" glyph-name="florist" d="M102.4 887.466c81.796-3.384 149.584-59.583 170.364-135.24l0.303-1.294 34.133 204.8 34.133-204.8c21.083 76.95 88.871 133.149 170.299 136.521l0.368 0.012c-13.653-2.048-68.267-17.749-68.267-136.533v-5.666c-1.59-72.629-60.843-130.897-133.704-130.897-0.995 0-1.987 0.011-2.977 0.032l0.148-0.003h-5.666c-72.629 1.59-130.897 60.843-130.897 133.704 0 0.995 0.011 1.987 0.032 2.977l-0.003-0.148c0 118.716-54.613 134.485-68.267 136.533zM820.019 204.8l204.8 34.133-204.8 34.133c76.777 21.104 132.759 88.96 135.705 170.342l0.009 0.324c-2.048-13.653-16.93-68.267-135.714-68.267-75.405 0-136.533-61.128-136.533-136.533s61.128-136.533 136.533-136.533v0c118.716 0 133.666-54.613 135.714-68.267-2.955 81.706-58.937 149.563-134.427 170.364l-1.288 0.303zM661.367 576.99c-37.703 0-68.267 30.564-68.267 68.267s30.564 68.267 68.267 68.267v0c-37.703 0-68.267 30.564-68.267 68.267s30.564 68.267 68.267 68.267v0c24.909-0.257 46.55-14.005 57.989-34.275l0.175-0.336 1.57 0.819c-4.797 8.77-7.704 19.178-7.918 30.245l-0.001 0.066c0 37.703 30.564 68.267 68.267 68.267s68.267-30.564 68.267-68.267v0c-0.215-11.133-3.122-21.54-8.093-30.66l0.175 0.35 1.297-0.683c11.701 20.377 33.259 33.928 57.998 34.133h0.029c0.254 0.003 0.553 0.005 0.853 0.005 37.706 0 68.272-30.566 68.272-68.272 0-37.406-30.082-67.785-67.373-68.266h-0.045c37.337-0.482 67.419-30.861 67.419-68.267 0-37.706-30.566-68.272-68.272-68.272-0.3 0-0.6 0.002-0.899 0.006h0.045c-24.768 0.205-46.325 13.756-57.853 33.806l-0.173 0.327-1.092-0.614c4.689-8.705 7.521-19.019 7.713-29.978l0.001-0.060c0-37.703-30.564-68.267-68.267-68.267s-68.267 30.564-68.267 68.267v0c0.193 11.018 3.025 21.332 7.889 30.394l-0.175-0.357-1.365 0.751c-11.613-20.606-33.254-34.354-58.127-34.611h-0.036zM709.837 713.182c0.078-39.567 32.171-71.612 71.748-71.612 39.625 0 71.748 32.123 71.748 71.748s-32.123 71.748-71.748 71.748v0c-39.567-0.078-71.612-32.171-71.612-71.748 0-0.048 0-0.096 0-0.144v0.007zM337.647 174.489l-35.226 35.157 304.606 304.060c-11.797 4.564-21.991 10.432-31.113 17.602l0.257-0.194-297.916-297.301-35.43 35.362c40.204 79.917 72.232 172.655 91.365 270.018l1.137 6.94c-8.254-1.285-17.973-2.145-27.847-2.384l-0.279-0.005c-2.799 0-4.983 0.546-7.646 0.683-21.485-93.595-50.978-175.715-88.831-252.995l3.020 6.826-25.327 25.327c-3.035 3.014-7.216 4.876-11.832 4.876-6.919 0-12.861-4.184-15.433-10.16l-0.042-0.109-145.34-348.57c-0.651-1.804-1.048-3.887-1.092-6.056v-0.020c0-9.426 7.641-17.067 17.067-17.067v0c2.461 0.027 4.803 0.501 6.961 1.343l-0.134-0.046 348.16 144.998c6.085 2.614 10.269 8.556 10.269 15.474 0 4.616-1.863 8.797-4.877 11.833l-25.394 25.394c70.598 34.896 152.868 64.374 238.819 84.233l7.76 1.51c0 4.028-1.024 7.236-1.024 11.332 0.299 8.938 1.058 17.378 2.263 25.673l-0.147-1.233c-104.24-20.313-196.903-52.338-283.109-95.374l6.356 2.873z" />
<glyph unicode="&#xe937;" glyph-name="fuel" d="M887.467 546.133v0-375.467c0-18.848-15.285-34.133-34.133-34.133s-34.133 15.285-34.133 34.133v136.533c0 56.552-45.848 102.4-102.4 102.4h-102.4v409.6c0 37.704-30.563 68.267-68.267 68.267h-409.6c-37.704 0-68.267-30.563-68.267-68.267v-750.933c0-37.704 30.563-68.267 68.267-68.267h409.6c37.704 0 68.267 30.563 68.267 68.267v273.067h102.4c18.848 0 34.133-15.285 34.133-34.133v-136.533c0-56.552 45.848-102.4 102.4-102.4s102.4 45.848 102.4 102.4v443.733c0 37.704-30.563 68.267-68.267 68.267v0 103.083c-0.369 18.582-15.544 33.457-34.133 33.451-19.224-0.321-34.557-16.159-34.236-35.389 0.014-0.717 0.048-1.44 0.102-2.157v-167.253c0-37.704 30.563-68.267 68.267-68.267s68.267 30.563 68.267 68.267-30.563 68.267-68.267 68.267zM546.133 512c0-18.848-15.285-34.133-34.133-34.133h-341.333c-18.848 0-34.133 15.285-34.133 34.133v204.8c0 18.848 15.285 34.133 34.133 34.133h341.333c18.848 0 34.133-15.285 34.133-34.133v-204.8z" />
<glyph unicode="&#xe938;" glyph-name="gaming" d="M894.293 102.4c-40.96-20.48-95.573-6.827-122.88 34.133l-75.093 95.573h-368.64l-75.093-95.573c-34.133-47.787-95.573-54.613-143.36-20.48-34.133 27.307-47.787 68.267-40.96 102.4l47.787 252.587c13.653 81.92 88.747 143.36 170.667 143.36v0h191.147v102.4c0 54.613 40.96 102.4 95.573 102.4h211.627c20.48 0 34.133-13.653 34.133-34.133s-13.653-34.133-34.133-34.133h-204.8c-20.48 0-34.133-13.653-34.133-27.307 0 0 0-6.827 0-6.827v-102.4h191.147c81.92 0 157.013-61.44 170.667-143.36v0l47.787-252.587c6.827-47.787-13.653-95.573-61.44-116.053zM409.6 443.733c0 54.613-47.787 102.4-102.4 102.4s-102.4-47.787-102.4-102.4 47.787-102.4 102.4-102.4 102.4 47.787 102.4 102.4zM819.2 443.733c0 20.48-13.653 34.133-34.133 34.133h-34.133v34.133c0 20.48-13.653 34.133-34.133 34.133s-34.133-13.653-34.133-34.133v-34.133h-34.133c-20.48 0-34.133-13.653-34.133-34.133s13.653-34.133 34.133-34.133h34.133v-34.133c0-20.48 13.653-34.133 34.133-34.133s34.133 13.653 34.133 34.133v34.133h34.133c20.48 0 34.133 13.653 34.133 34.133z" />
<glyph unicode="&#xe939;" glyph-name="garden" d="M887.467 409.6c0-225.963-149.504-409.6-375.467-409.6s-375.467 183.637-375.467 409.6c154.576-1.304 291.458-100.127 341.333-246.443v314.709h-170.667c-56.552 0-102.4 45.848-102.4 102.4v204.8c0 18.848 15.285 34.133 34.133 34.133 10.745 0 20.862-5.059 27.307-13.653l104.448-136.533 112.64 204.8c10.226 15.838 31.355 20.378 47.193 10.151 4.062-2.628 7.523-6.083 10.151-10.151l112.64-204.8 104.448 136.533c11.312 15.080 32.707 18.138 47.787 6.827 8.595-6.444 13.653-16.561 13.653-27.307v-204.8c0-56.552-45.848-102.4-102.4-102.4h-170.667v-314.709c49.876 146.316 186.757 245.139 341.333 246.443z" />
<glyph unicode="&#xe93a;" glyph-name="garden-center" d="M273.067 614.4v34.133c0 94.208 76.459 170.667 170.667 170.667s170.667-76.459 170.667-170.667v-395.469l161.451 161.451-23.689 88.405c0 0.137-0.068 0.273-0.068 0.41h-0.068c-2.935 11.332 0 23.962 8.943 32.836 13.312 13.312 34.953 13.312 48.265 0l136.533-136.533c13.312-13.312 13.312-34.953 0-48.265-8.875-8.875-21.367-11.878-32.7-8.943 0 0 0 0 0 0-0.205 0.068-0.41 0.137-0.683 0.205l-88.269 23.62-209.715-209.715v-20.002c0-37.683-30.583-68.267-68.267-68.267h-204.8c-37.683 0-68.267 30.583-68.267 68.267v31.676l-154.829 154.829c-66.56 66.628-66.56 174.763 0 241.391 33.314 33.314 77.005 49.971 120.695 49.971v0h34.133zM273.067 546.133h-34.133c-26.214 0-52.429-10.035-72.431-29.969-39.936-40.004-39.936-104.858 0-144.862l106.564-106.496v281.327zM546.133 614.4v34.133c0 56.525-45.875 102.4-102.4 102.4s-102.4-45.875-102.4-102.4v-34.133h204.8z" />
<glyph unicode="&#xe93b;" glyph-name="gift" d="M443.733 614.4v-136.533h-443.733v136.533h443.733zM580.267 614.4v-136.533h443.733v136.533h-443.733zM68.267 409.6v-307.2c0-56.552 45.848-102.4 102.4-102.4h273.067v409.6h-375.467zM580.267 409.6v-409.6h273.067c56.552 0 102.4 45.848 102.4 102.4v307.2h-375.467zM716.8 955.733c-95.799 3.031-180.886-60.785-204.8-153.6-23.914 92.815-109.001 156.631-204.8 153.6-73.107 2.301-134.233-55.105-136.533-128.212-0.089-2.772-0.089-5.55 0-8.322-10.629-64.355 32.918-125.14 97.273-135.769 10.95-1.809 22.098-2.068 33.116-0.765h418.475c65.181-10.22 126.314 34.331 136.533 99.512 1.925 12.268 1.925 24.753 0 37.021 0.014 75.407-61.099 136.547-136.506 136.561-0.922 0-1.836-0.007-2.758-0.027zM307.2 750.933c-34.543-3.161-65.106 22.282-68.267 56.818-0.348 3.809-0.348 7.639 0 11.448-3.161 34.543 22.282 65.106 56.818 68.267 3.809 0.348 7.639 0.348 11.448 0 75.407 0 136.533-61.126 136.533-136.533h-136.533zM716.8 750.933h-136.533c0 75.407 61.126 136.533 136.533 136.533 37.704 0 68.267-30.563 68.267-68.267 3.161-34.543-22.282-65.106-56.818-68.267-3.809-0.348-7.639-0.348-11.448 0z" />
<glyph unicode="&#xe93c;" glyph-name="golf" d="M232.1 880.64c0-6.827 0-13.653 0-13.653 0-27.307 20.48-47.787 47.787-47.787 20.48 0 34.133 13.653 40.96 34.133v0l13.66 34.133 382.293-157.013-266.24-184.32c-27.307-20.48-27.307-47.787-20.48-75.093l61.44-143.36-88.747-266.24c-13.653-34.133 13.653-61.44 40.96-61.44 20.48 0 34.133 6.827 40.96 34.133l95.573 273.067 6.827-20.48v-238.933c0 0 0-47.787 47.787-47.787s47.787 47.787 47.787 47.787v225.28c0 13.653 0 20.48-6.827 34.133l-95.573 232.107 184.32 129.707c13.653 13.653 27.307 20.48 27.307 40.96s-13.653 34.133-27.307 40.96l-491.52 197.973c-5.994 0-8.055-1.222-13.66-6.827l-27.307-61.44zM375.467 750.933c-54.613 0-102.4-47.787-102.4-102.4s47.787-102.4 102.4-102.4 102.4 47.787 102.4 102.4-47.793 102.4-102.4 102.4z" />
<glyph unicode="&#xe93d;" glyph-name="grocery" d="M901.067 853.333c0 0-94.919 2.813-132.8-34.133-36.42-35.512-51.467-62.648-51.467-136.533h-634.933l95.2-328.667c0.239-0.498 0.674-0.975 0.933-1.467 16.002-44.872 57.83-77.189 107.733-79.067 0.205-0.089 0.933-0.4 0.933-0.4h443.733v-13.6c0 0 0.053-20.56-13.6-47.867s-20.453-40.933-75.067-40.933h-443.733c-68.267 0-68.267-102.4 0-102.4h436.933c81.92 0 143.253 47.813 163.733 95.6s20.533 88.667 20.533 88.667v430.133c0 35.744 15.607 68.267 47.733 68.267h37.6c28.276 0 51.2 22.924 51.2 51.2s-22.924 51.2-51.2 51.2h-3.467zM628 68.266c-40.96 0-68.267-27.307-68.267-68.267s27.307-68.267 68.267-68.267c40.96 0 68.267 27.307 68.267 68.267s-27.307 68.267-68.267 68.267zM286.667 68.266c-40.96 0-68.267-27.307-68.267-68.267s27.307-68.267 68.267-68.267c40.96 0 68.267 27.307 68.267 68.267s-27.307 68.267-68.267 68.267z" />
<glyph unicode="&#xe93e;" glyph-name="hairdresser" d="M1024 750.933c0 0-136.533 40.96-238.933-34.133l-293.547-204.8c-54.613 40.96-136.533 88.747-218.453 116.053v54.613c0 75.093-61.44 136.533-136.533 136.533s-136.533-61.44-136.533-136.533v-102.4c0-34.133 34.133-34.133 34.133-34.133h136.533c136.533 0 238.933-102.4 238.933-102.4s-102.4-102.4-238.933-102.4h-136.533c0 0-34.133 0-34.133-34.133v-102.4c0-75.093 61.44-136.533 136.533-136.533s136.533 61.44 136.533 136.533v54.613c81.92 27.307 163.84 75.093 218.453 116.053l293.547-204.8c102.4-75.093 238.933-34.133 238.933-34.133l-443.733 307.2 443.733 307.2zM204.8 614.4h-136.533v68.267c0 40.96 27.307 68.267 68.267 68.267s68.267-27.307 68.267-68.267v-68.267zM204.8 204.8c0-40.96-27.307-68.267-68.267-68.267s-68.267 27.307-68.267 68.267v68.267h136.533v-68.267zM494.933 409.6c-18.848 0-34.133 15.285-34.133 34.133s15.285 34.133 34.133 34.133 34.133-15.285 34.133-34.133-15.285-34.133-34.133-34.133z" />
<glyph unicode="&#xe93f;" glyph-name="harbor" d="M512 955.733c-136.533 0-238.933-106.974-238.933-238.933 0.164-106.694 70.977-198.11 170.667-227.867v-412.269c-63.522 11.244-128.034 37.519-180.797 86.665-71.844 66.915-126.266 173.391-126.266 348.809 0.526 38.543-30.932 69.878-69.468 69.202-37.649-0.594-67.721-31.553-67.202-69.202 0-204.998 69.079-354.679 169.998-448.669s228.536-131.734 342.002-131.734c113.705 0 241.323 38.202 342.132 132.403s169.731 243.965 169.731 448c4.424 95.252-140.82 95.252-136.397 0 0-174.285-54.593-280.911-126.532-348.133-52.797-49.336-117.262-75.831-180.668-87.204v411.866c99.717 29.764 170.571 121.351 170.667 228.134 0 131.959-102.4 238.933-238.933 238.933zM512 819.2c56.552 0 102.4-45.848 102.4-102.4s-45.848-102.4-102.4-102.4-102.4 45.848-102.4 102.4 45.848 102.4 102.4 102.4z" />
<glyph unicode="&#xe940;" glyph-name="heart" d="M949.589 494.933c-79.872-153.6-293.547-362.496-414.379-473.771-12.991-11.728-32.748-11.728-45.739 0-121.515 111.275-335.189 320.171-415.061 473.771-175.445 337.92 266.923 563.2 437.589 225.28 170.667 337.92 613.035 112.64 437.589-225.28z" />
<glyph unicode="&#xe941;" glyph-name="heliport" d="M273.067 819.2c-68.267 0-68.267-68.267 0-68.267h273.067v-68.267c-18.91 0-34.133-15.223-34.133-34.133v-34.133h-243.603c-15.531 60.068-69.591 102.325-131.864 102.4-75.407 0-136.533-61.126-136.533-136.533s61.126-136.533 136.533-136.533c25.409 0.068 50.299 7.223 71.864 20.664l167.069-225.464c68.772-99.021 192.389-102.4 238.933-102.4h341.333c0 0 68.267 0 68.267 68.267v67.864c0 50.005-8.602 77.271-34.133 102.803l-204.8 204.8c0 0-40.387 34.133-86.931 34.133h-49.603v34.133c0 18.91-15.223 34.133-34.133 34.133v68.267h273.067c68.267 0 68.267 68.267 0 68.267 0 0-614.4 0-614.4 0zM136.533 648.533c37.704 0 68.267-30.563 68.267-68.267s-30.563-68.267-68.267-68.267-68.267 30.563-68.267 68.267c0 37.704 30.563 68.267 68.267 68.267zM682.667 546.133c34.133 0 53.903-22.057 68.267-34.133l170.667-170.667h-238.933c0 0-68.267 0-68.267 68.267v68.267c0 0 0 68.267 68.267 68.267z" />
<glyph unicode="&#xe942;" glyph-name="home" d="M136.533 17.217c0-9.426 7.641-17.067 17.067-17.067h255.932v204.8h204.8v-204.8h255.932c9.426 0 17.067 7.641 17.067 17.067v392.472h-750.797c0 0 0-392.472 0-392.472zM950.955 506.689l-63.618 55.904v256.608c0 37.702-30.564 68.267-68.267 68.267s-68.267-30.564-68.267-68.267v-136.533l-226.461 198.656c-6.451 6.847-17.226 7.183-24.091 0.751l-0.751-0.751-426.605-372.941c-6.444-6.879-6.092-17.679 0.786-24.123 3.103-2.907 7.181-4.551 11.433-4.61l119.685-1.707h733.648c9.426-0.031 17.092 7.584 17.123 17.010 0.014 4.356-1.637 8.552-4.617 11.73v0.007z" />
<glyph unicode="&#xe943;" glyph-name="horse-riding" d="M409.6 887.466c0 37.703 30.564 68.267 68.267 68.267s68.267-30.564 68.267-68.267c0-37.703-30.564-68.267-68.267-68.267v0c-37.703 0-68.267 30.564-68.267 68.267v0zM546.133 716.8c0.038 0.592 0.059 1.283 0.059 1.98s-0.022 1.388-0.064 2.074l0.005-0.094c-1.078 16.92-15.064 30.234-32.161 30.234-0.694 0-1.383-0.022-2.066-0.065l0.093 0.005h-68.267c-0.592 0.038-1.283 0.059-1.98 0.059s-1.388-0.022-2.074-0.064l0.094 0.005c-16.92-1.078-30.234-15.064-30.234-32.161 0-0.694 0.022-1.383 0.065-2.066l-0.005 0.093v-238.933h136.533zM1013.76 468.036l-139.947 160.017 5.803 34.748c0.254 1.232 0.449 2.706 0.542 4.208l0.005 0.093c0 9.426-7.641 17.067-17.067 17.067v0c-4.059-0.401-7.731-1.772-10.871-3.877l0.085 0.054-237.909-202.479h-68.267l68.267-68.267v-102.4c0-18.851-15.282-34.133-34.133-34.133s-34.133 15.282-34.133 34.133v0 68.267l-136.533 102.4h-136.533c-35.172-0.010-66.199-17.751-84.628-44.771l-0.228-0.354c-17.768 26.773-47.506 44.372-81.399 45.122l-0.112 0.002h-4.301c-1.054 0.040-2.293 0.063-3.536 0.063-53.477 0-97.043-42.436-98.859-95.47l-0.005-0.166v-5.871c0.865-48.462 14.954-93.46 38.796-131.756l-0.635 1.094c3.174-3.823 7.771-6.37 12.968-6.822l0.071-0.005c9.426 0 17.067 7.641 17.067 17.067v0 85.333s-1.365 63.078 51.405 68.267c34.133 3.277 50.995-17.271 50.995-34.133v-170.667l-34.133-136.533v-119.467c0-9.426 7.641-17.067 17.067-17.067v0c9.003 0.118 16.344 7.079 17.063 15.913l0.004 0.062v120.559l102.4 136.533v-68.267l34.133-191.147c1.767-7.801 8.594-13.554 16.783-13.653h0.011c0.082-0.001 0.178-0.002 0.275-0.002 9.33 0 16.912 7.487 17.064 16.782v0.014l-9.899 167.526 44.032 88.747h170.667v-68.267l34.679-192.034c2.117-7.313 8.679-12.599 16.502-12.766h0.019c9.426 0 17.067 7.641 17.067 17.067v0 187.733l25.054 68.267c16.854 8.845 29.857 23.107 36.879 40.432l0.189 0.528 147.524 257.161c10.267-18.174 29.458-30.244 51.467-30.244 6.568 0 12.885 1.075 18.785 3.058l-0.415-0.121 72.772-55.842c6.468-5.381 14.746-8.79 23.804-9.213l0.090-0.003c16.144 0.143 29.53 11.77 32.395 27.101l0.032 0.206c0.22 1.529 0.345 3.295 0.345 5.090 0 9.65-3.627 18.453-9.593 25.12l0.032-0.036z" />
<glyph unicode="&#xe944;" glyph-name="hospital" d="M477.867 887.466c-40.96 0-68.267-27.307-68.267-68.267v-273.067h-273.067c-40.96 0-68.267-27.307-68.267-68.267v-68.267c0-40.96 27.307-68.267 68.267-68.267h273.067v-273.067c0-40.96 27.307-68.267 68.267-68.267h68.267c40.96 0 68.267 27.307 68.267 68.267v273.067h273.067c40.96 0 68.267 27.307 68.267 68.267v68.267c0 40.96-27.307 68.267-68.267 68.267h-273.067v273.067c0 40.96-27.307 68.267-68.267 68.267h-68.267z" />
<glyph unicode="&#xe945;" glyph-name="ice-cream" d="M371.371 397.994c48.852-0.041 96.529 14.978 136.533 43.008 31.655-22.077 68.205-36.134 106.496-40.96h30.037l-98.304-379.563c-7.386-17.347-27.436-25.416-44.783-18.022-8.11 3.454-14.568 9.912-18.022 18.022l-111.957 377.515zM780.971 636.928c0-75.407-61.126-136.533-136.533-136.533s-136.533 61.126-136.533 136.533v0 0 0c0-75.407-61.126-136.533-136.533-136.533s-136.533 61.126-136.533 136.533 61.126 136.533 136.533 136.533h8.192c-26.242 70.69 9.796 149.272 80.486 175.514s149.272-9.796 175.514-80.486c11.38-30.652 11.38-64.369 0-95.020h8.875c75.407-0.007 136.533-61.133 136.533-136.54z" />
<glyph unicode="&#xe946;" glyph-name="industry" d="M955.733 887.466v-819.2h-887.467v292.181c0.109 9.687 4.328 18.869 11.605 25.259l204.8 219.819c14.159 12.445 35.731 11.046 48.169-3.113 5.543-6.308 8.567-14.432 8.492-22.828v-204.8l215.723 230.059c13.824 12.82 35.417 12.008 48.237-1.816 5.912-6.369 9.168-14.752 9.107-23.443v-374.784h204.8v682.667h136.533z" />
<glyph unicode="&#xe947;" glyph-name="information" d="M512 887.466c-54.613 0-102.4-47.787-102.4-102.4s47.787-102.4 102.4-102.4 102.4 47.787 102.4 102.4-47.787 102.4-102.4 102.4zM273.067 614.4v-68.267c0 0 136.533 0 136.533-136.533v-136.533c0-136.533-136.533-136.533-136.533-136.533v-68.267h477.867v68.267c0 0-136.533 0-136.533 136.533v273.067c0 34.133-34.133 68.267-68.267 68.267h-273.067z" />
<glyph unicode="&#xe948;" glyph-name="karaoke" d="M826.027 754.21c-36.995 37.415-88.327 60.585-145.072 60.585-109.401 0-198.687-86.126-203.754-194.274l-0.017-0.455 214.494-214.494c108.602 5.085 194.727 94.37 194.727 203.771 0 56.642-23.087 107.892-60.364 144.853l-0.014 0.014zM318.942 392.192l-144.862-144.862c-12.35-12.353-19.988-29.417-19.988-48.265s7.638-35.911 19.988-48.265l48.264-48.264c12.353-12.35 29.417-19.988 48.265-19.988s35.911 7.638 48.265 19.988l289.655 289.655-144.794 144.794zM369.527 249.719l-48.265 48.265 142.473 142.473 48.265-48.265z" />
<glyph unicode="&#xe949;" glyph-name="landmark" d="M853.333 136.533h-34.133v34.133c0 20.48-13.653 34.133-34.133 34.133h-34.133v341.333h68.267l68.267 136.533c-68.267-6.827-136.533-6.827-204.8 0-54.613 40.96-95.573 81.92-136.533 136.533v34.133c0 20.48-13.653 34.133-34.133 34.133s-34.133-13.653-34.133-34.133v-34.133c-40.96-54.613-81.92-95.573-136.533-136.533-68.267-6.827-136.533-6.827-204.8 0l68.267-136.533h68.267v-341.333c0 0-34.133 0-34.133 0-20.48 0-34.133-13.653-34.133-34.133v-34.133h-34.133c-20.48 0-34.133-13.653-34.133-34.133v-34.133h750.933v34.133c0 20.48-13.653 34.133-34.133 34.133zM477.867 204.8h-136.533v341.333h136.533v-341.333zM682.667 204.8h-136.533v341.333h136.533v-341.333z" />
<glyph unicode="&#xe94a;" glyph-name="landuse" d="M608.324 692.633c3.719-3.122 6.069-7.771 6.076-12.969v-252.997c0-9.426-7.641-17.067-17.067-17.067v0h-170.667c-9.426 0-17.067 7.641-17.067 17.067v0 119.467h-68.267v-119.467c0-9.426-7.641-17.067-17.067-17.067v0h-170.667c-9.426 0-17.067 7.641-17.067 17.067v0 252.587c0.007 5.199 2.357 9.848 6.050 12.949l0.026 0.021 222.14 186.231c2.886 2.434 6.646 3.914 10.752 3.914s7.866-1.48 10.777-3.935l-0.025 0.021zM529.203 307.2c-3.513-0.001-6.776-1.072-9.48-2.905l0.059 0.038-178.449-133.666h-68.267v136.533c0 18.851-15.282 34.133-34.133 34.133s-34.133-15.282-34.133-34.133v0-136.533h-68.267v136.533c0 18.851-15.282 34.133-34.133 34.133s-34.133-15.282-34.133-34.133v0-290.133c0-9.426 7.641-17.067 17.067-17.067v0h443.733c9.426 0 17.067 7.641 17.067 17.067v0 273.067c0 0.041 0.001 0.089 0.001 0.137 0 9.35-7.58 16.93-16.93 16.93 0 0 0 0-0.001 0v0zM955.733 529.408v-443.733c0-9.539-7.733-17.271-17.271-17.271v0h-238.524c0 0 0 0-0.001 0-9.491 0-17.194 7.655-17.271 17.128v443.536c0 0.020 0 0.044 0 0.068 0 9.388 7.61 16.998 16.998 16.998 0.024 0 0.048 0 0.072 0h51.196v51.268c0 9.388 7.61 16.998 16.998 16.998v0h102.4c9.48-0.077 17.135-7.78 17.135-17.271 0 0 0 0 0-0.001v0-50.995h51.541c9.237 0 16.725-7.488 16.725-16.725v0zM887.467 204.8h-136.533v-68.267h136.533zM887.467 341.333h-136.533v-68.267h136.533zM887.467 477.866h-136.533v-68.267h136.533z" />
<glyph unicode="&#xe94b;" glyph-name="laundry" d="M546.133 887.466l-136.533-136.533h-204.8c0 0-68.267 0-68.267-68.267v-614.4c0-68.267 68.267-68.267 68.267-68.267h614.4c0 0 68.267 0 68.267 68.267v750.933c0 68.267-68.267 68.267-68.267 68.267s-273.067 0-273.067 0zM580.267 819.2h136.533c18.91 0 34.133-15.223 34.133-34.133s-15.223-34.133-34.133-34.133h-136.533c-18.91 0-34.133 15.223-34.133 34.133s15.223 34.133 34.133 34.133zM512 546.133c113.111 0 204.8-91.689 204.8-204.8s-91.689-204.8-204.8-204.8-204.8 91.689-204.8 204.8 91.689 204.8 204.8 204.8z" />
<glyph unicode="&#xe94c;" glyph-name="library" d="M509.952 619.861c0 0-120.832 131.072-441.685 131.072v-546.133c320.853 0 441.685-136.533 441.685-136.533s124.928 136.533 445.781 136.533v546.133c-320.853 0-445.781-131.072-445.781-131.072zM887.467 273.066c-133.898-3.359-264.376-43.001-377.515-114.688-111.548 71.864-240.763 111.555-373.419 114.688v409.6c232.107-17.749 322.901-109.227 324.267-109.909l49.835-50.517 49.152 51.2c0 0 95.573 91.477 327.68 109.227v-409.6zM546.133 256.682l-6.827 11.605c88.822 40.489 183.139 67.632 279.893 80.555v-13.653c-94.474-13.332-186.477-40.475-273.067-80.555v2.048zM546.133 324.949l-6.827 11.605c88.856 40.264 183.173 67.174 279.893 79.872v-13.653c-94.508-13.571-186.511-40.94-273.067-81.237v3.413zM546.133 393.216l-6.827 11.605c88.849 40.277 183.166 67.195 279.893 79.872v-13.653c-94.515-13.524-186.525-40.892-273.067-81.237v3.413zM546.133 461.482l-6.827 11.605c88.835 40.318 183.159 67.236 279.893 79.872v-13.653c-94.508-13.558-186.511-40.933-273.067-81.237v3.413zM471.040 256.682c-84.384 39.315-174.087 65.993-266.24 79.189v13.653c94.7-13.844 186.764-41.923 273.067-83.285l-6.827-9.557zM471.040 324.949c-84.453 38.844-174.162 65.065-266.24 77.824v13.653c94.618-13.838 186.648-41.677 273.067-82.603l-6.827-8.875zM471.040 393.216c-84.439 38.878-174.155 65.106-266.24 77.824v13.653c94.672-13.585 186.737-41.438 273.067-82.603l-6.827-8.875zM471.040 461.482c-84.453 38.844-174.162 65.065-266.24 77.824v13.653c94.618-13.817 186.655-41.656 273.067-82.603l-6.827-8.875z" />
<glyph unicode="&#xe94d;" glyph-name="lighthouse" d="M307.2 546.133l-307.2-68.267v34.133l307.2 68.267v-34.133zM307.2 716.8l-307.2 68.267v-34.133l307.2-68.267v34.133zM716.8 716.8v-34.133l307.2 68.267v34.133l-307.2-68.267zM716.8 546.133l307.2-68.267v34.133l-307.2 68.267v-34.133zM546.133 477.866v341.333h170.667c18.848-3.768 37.192 8.458 40.96 27.307s-8.458 37.192-27.307 40.96l-204.8 68.267c-8.902 4-19.087 4-27.989 0l-204.8-68.267c-18.848-3.768-31.075-22.112-27.307-40.96s22.112-31.075 40.96-27.307h171.349v-341.333h-136.533l-136.533-477.867h614.4l-136.533 477.867h-136.533z" />
<glyph unicode="&#xe94e;" glyph-name="lodging" d="M34.133 785.066c-20.48 0-34.133-13.653-34.133-34.133v-648.533c0-20.48 13.653-34.133 34.133-34.133s34.133 13.653 34.133 34.133v102.4h887.467v-102.4c0-20.48 13.653-34.133 34.133-34.133s34.133 13.653 34.133 34.133v136.533c0 20.48-13.653 34.133-34.133 34.133h-921.6v477.867c0 20.48-13.653 34.133-34.133 34.133zM238.933 750.933c-54.613 0-102.4-47.787-102.4-102.4v0c0-54.613 47.787-102.4 102.4-102.4v0c54.613 0 102.4 47.787 102.4 102.4v0c0 54.613-47.787 102.4-102.4 102.4v0zM477.867 682.666c-102.4 0-102.4-102.4-102.4-102.4v-102.4h-204.8c-20.48 0-34.133-13.653-34.133-34.133v-68.267c0-20.48 13.653-34.133 34.133-34.133h853.333v170.667c0 170.667-170.667 170.667-170.667 170.667h-375.467z" />
<glyph unicode="&#xe94f;" glyph-name="logging" d="M949.589 722.944l-27.989 27.989 13.653 19.115c1.365 2.048 2.731 3.413 4.096 5.461 10.178 11.575 16.389 26.855 16.389 43.585 0 0.277-0.002 0.554-0.005 0.83v-0.042c-0.558 37.274-30.905 67.276-68.259 67.276-16.055 0-30.815-5.542-42.472-14.817l0.139 0.107c-2.048-1.365-4.096-3.413-6.144-4.779l-19.797-14.336-26.351 26.351c-4.434 4.837-10.781 7.858-17.834 7.858-13.347 0-24.166-10.82-24.166-24.166 0-6.204 2.338-11.862 6.18-16.141l-0.020 0.022 28.467-28.467-34.133-34.133-26.761 26.761c-4.434 4.837-10.781 7.858-17.834 7.858-13.347 0-24.166-10.82-24.166-24.166 0-6.204 2.338-11.862 6.18-16.141l-0.020 0.022 28.058-28.058-34.133-34.133-26.010 26.010c-4.446 4.958-10.872 8.063-18.022 8.063-13.351 0-24.174-10.823-24.174-24.174 0-6.2 2.334-11.855 6.171-16.134l-0.020 0.023 27.921-27.921-34.133-34.133-26.965 26.965c-4.368 4.343-10.389 7.027-17.037 7.027-13.347 0-24.166-10.82-24.166-24.166 0-6.070 2.238-11.618 5.934-15.862l-0.025 0.029 28.126-28.126-34.133-34.133-24.917 24.917c-4.468 5.623-11.306 9.196-18.978 9.196-13.355 0-24.181-10.826-24.181-24.181 0-5.682 1.96-10.907 5.241-15.034l-0.038 0.050c1.434-1.775 29.286-29.082 29.286-29.082l-34.679-34.133-26.897 26.761c-4.763 4.436-11.172 7.159-18.218 7.159-5.993 0-11.526-1.97-15.986-5.298l0.071 0.050c-4.534-4.706-7.326-11.116-7.326-18.178 0-6.031 2.037-11.587 5.46-16.016l-0.045 0.061 1.502-1.365 27.307-27.307-34.133-34.133-27.307 27.307c-4.479 4.115-10.478 6.638-17.067 6.638s-12.588-2.523-17.085-6.655l0.018 0.017 78.37-78.097 426.803 426.257h34.133v-34.133l-426.598-426.598 78.438-78.575c4.344 4.379 7.029 10.409 7.029 17.067s-2.685 12.688-7.030 17.068l0.002-0.002-0.546 0.614-26.761 26.692 34.133 34.133 26.214-26.214c4.446-4.958 10.872-8.063 18.022-8.063 13.351 0 24.174 10.823 24.174 24.174 0 6.2-2.334 11.855-6.171 16.134l0.020-0.023-28.126 28.126 34.133 34.133 25.941-25.941c4.446-4.958 10.872-8.063 18.022-8.063 13.351 0 24.174 10.823 24.174 24.174 0 6.2-2.334 11.855-6.171 16.134l0.020-0.023-27.853 27.853 34.133 34.133 25.737-25.737c4.36-5.095 10.773-8.324 17.942-8.397h0.012c0.303-0.014 0.657-0.022 1.014-0.022 13.083 0 23.689 10.606 23.689 23.689 0 6.816-2.879 12.959-7.486 17.281l-0.013 0.012-26.761 27.307 34.133 34.133 25.941-25.941c4.446-4.958 10.872-8.063 18.022-8.063 13.351 0 24.174 10.823 24.174 24.174 0 6.2-2.334 11.855-6.171 16.134l0.020-0.023-27.853 27.853 34.133 34.133 26.010-26.010c4.446-4.958 10.872-8.063 18.022-8.063 13.351 0 24.174 10.823 24.174 24.174 0 6.2-2.334 11.855-6.171 16.134l0.020-0.023-27.921 27.921 34.133 34.133 26.078-26.078c4.446-4.958 10.872-8.063 18.022-8.063 13.351 0 24.174 10.823 24.174 24.174 0 6.2-2.334 11.855-6.171 16.134l0.020-0.023zM299.691 415.334c-33.929 33.929-51.132 62.532-94.891 62.532h-102.4c-18.851 0-34.133-15.282-34.133-34.133v0-204.8c-0.108-2.123-0.169-4.61-0.169-7.111 0-36.327 12.956-69.627 34.499-95.533l-0.197 0.244 55.637-55.364c28.28-31.755 69.279-51.659 114.926-51.659 39.229 0 75.024 14.699 102.179 38.891l-0.153-0.134 137.011 136.533zM238.933 273.066l-84.514-84.514c-10.581 13.884-17.194 31.298-17.881 50.223l-0.005 0.157v170.667h68.267c9.284-1.554 17.237-6.357 22.817-13.177l0.053-0.066c7.081-5.74 11.57-14.438 11.57-24.185 0-1.535-0.111-3.043-0.326-4.519l0.020 0.168z" />
<glyph unicode="&#xe950;" glyph-name="marker" d="M512 955.733c-166.052 0-359.786-101.478-359.786-359.786 0-175.275 276.76-562.736 359.786-664.214 73.803 101.478 359.786 479.71 359.786 664.214 0 258.307-193.734 359.786-359.786 359.786z" />
<glyph unicode="&#xe951;" glyph-name="marker-stroked" d="M512-64.239l-27.307 33.792c-66.423 81.169-334.507 447.556-334.507 625.323-0.217 4.585-0.341 9.958-0.341 15.36 0 185.599 146.203 337.051 329.722 345.47l0.757 0.028q15.155 0.683 30.379 0c4.585 0.217 9.958 0.341 15.36 0.341 185.599 0 337.051-146.203 345.47-329.722l0.028-0.757q0.683-15.36 0-30.72c0-151.074-182.204-417.178-319.351-604.228zM510.703 888.422c-4.681 0.281-10.154 0.441-15.665 0.441-153.714 0-278.323-124.61-278.323-278.323 0-5.511 0.16-10.984 0.476-16.415l-0.035 0.751c0-125.065 188.348-412.194 292.591-548.454 85.333 116.736 294.571 408.849 294.571 548.454 0.281 4.681 0.441 10.154 0.441 15.665 0 153.714-124.61 278.323-278.323 278.323-5.511 0-10.984-0.16-16.415-0.476l0.751 0.035z" />
<glyph unicode="&#xe952;" glyph-name="mobile-phone" d="M682.667 819.2v0 34.133c0 18.851-15.282 34.133-34.133 34.133s-34.133-15.282-34.133-34.133v0-34.133h-273.067c-37.703 0-68.267-30.564-68.267-68.267v0-682.667c0-37.703 30.564-68.267 68.267-68.267v0h341.333c37.703 0 68.267 30.564 68.267 68.267v0 682.667c0 37.703-30.564 68.267-68.267 68.267v0zM409.6 68.266h-68.267v68.267h68.267zM409.6 204.8h-68.267v68.267h68.267zM409.6 341.333h-68.267v68.267h68.267zM546.133 68.266h-68.267v68.267h68.267zM546.133 204.8h-68.267v68.267h68.267zM546.133 341.333h-68.267v68.267h68.267zM682.667 68.266h-68.267v68.267h68.267zM682.667 204.8h-68.267v68.267h68.267zM682.667 341.333h-68.267v68.267h68.267zM682.667 512c0-18.851-15.282-34.133-34.133-34.133v0h-273.067c-18.851 0-34.133 15.282-34.133 34.133v0 204.8c0 18.851 15.282 34.133 34.133 34.133v0h273.067c18.851 0 34.133-15.282 34.133-34.133v0z" />
<glyph unicode="&#xe953;" glyph-name="monument" d="M512 955.733l-102.4-170.667v-477.867h204.8v477.867l-102.4 170.667zM204.8 170.666v-238.933h614.4v238.933l-102.4 102.4h-409.6l-102.4-102.4z" />
<glyph unicode="&#xe954;" glyph-name="mountain" d="M512 819.2c-20.48 0-27.307-13.653-40.96-27.307l-395.947-648.533c-6.827-6.827-6.827-20.48-6.827-27.307 0-34.133 27.307-47.787 47.787-47.787h791.893c27.307 0 47.787 13.653 47.787 47.787 0 13.653 0 13.653-6.827 27.307l-389.12 648.533c-13.653 13.653-27.307 27.307-47.787 27.307zM512 716.8l225.28-375.467h-54.613l-102.4 102.4-68.267-102.4-68.267 102.4-102.4-102.4h-61.44l232.107 375.467z" />
<glyph unicode="&#xe955;" glyph-name="museum" d="M512 955.733l-443.733-235.199v-37.868h887.467v37.868l-443.733 235.199zM136.533 614.4v-341.333l-68.267-106.134v-98.666h887.467v98.666l-68.267 106.134v341.333h-750.933zM315.064 546.133c11.537 0.157 22.651-4.362 30.802-12.534l166.134-166.134 166.134 166.134c16.691 16.637 43.704 16.602 60.348-0.089 7.953-7.974 12.431-18.78 12.452-30.044v-289.601c0.335-23.566-18.5-42.94-42.066-43.267-23.566-0.335-42.94 18.5-43.267 42.066-0.007 0.403-0.007 0.806 0 1.208v186.662l-123.467-123.467c-16.657-16.609-43.609-16.609-60.266 0l-123.467 123.467v-186.668c0.335-23.566-18.5-42.94-42.066-43.267-23.559-0.335-42.933 18.493-43.267 42.059-0.007 0.403-0.007 0.806 0 1.208v289.601c0 23.306 18.698 42.298 41.998 42.667z" />
<glyph unicode="&#xe956;" glyph-name="music" d="M921.6 887.466c-5.489-0.055-10.882-1.461-15.701-4.096l-598.699-166.571c-18.848 0-34.133-15.285-34.133-34.133v-428.715c-20.678 12.274-44.223 18.862-68.267 19.115-75.407 0-136.533-61.126-136.533-136.533s61.126-136.533 136.533-136.533 136.533 61.126 136.533 136.533v316.757l546.133 151.552v-248.491c-20.678 12.274-44.223 18.862-68.267 19.115-75.407 0-136.533-61.126-136.533-136.533s61.126-136.533 136.533-136.533 136.533 61.126 136.533 136.533v614.4c0 18.848-15.285 34.133-34.133 34.133zM887.467 673.109l-546.133-151.552v136.533l546.133 151.552c0 0 0-136.533 0-136.533z" />
<glyph unicode="&#xe957;" glyph-name="natural" d="M597.538 527.155c-4.977-2.999-10.985-4.773-17.408-4.773s-12.431 1.774-17.562 4.859l0.154-0.086c-62.857 43.414-106.722 110.481-118.787 188.069l-0.202 1.575c-3.159 39.262-17.822 74.59-40.575 103.197l0.298-0.388-1.297 1.843c-2.169 2.686-3.569 6.073-3.82 9.777l-0.003 0.054c-0.016 0.273-0.026 0.592-0.026 0.913 0 8.936 7.244 16.179 16.179 16.179 0.321 0 0.64-0.009 0.957-0.028l-0.044 0.002c1.432-0.118 2.756-0.384 4.019-0.786l-0.128 0.035c36.609-13.964 67.644-35.299 92.552-62.362l0.155-0.17 53.248 106.496c2.819 5.546 8.483 9.279 15.019 9.279s12.199-3.733 14.975-9.184l0.044-0.095 53.248-106.496c24.583 27.105 55.222 48.261 89.814 61.387l1.595 0.531c2.014 0.848 4.351 1.369 6.801 1.433l0.025 0.001c11.947-0.614 14.473-8.124 15.087-16.998-0.308-3.576-1.359-6.848-2.997-9.745l0.062 0.119c-18.492-30.217-33.015-65.282-41.654-102.601l-0.466-2.393c-12.369-79.191-56.322-146.254-118.321-189.031l-0.941-0.614zM341.333 409.6h87.996c9.426 0 17.067 7.641 17.067 17.067v0c-0.178 3.956-1.726 7.519-4.178 10.256l0.014-0.016-121.378 161.451c-3.215 3.82-7.999 6.231-13.346 6.231s-10.131-2.411-13.324-6.205l-0.022-0.026-122.266-160.7c-2.464-2.981-4.027-6.785-4.231-10.948l-0.002-0.043c0-9.426 7.641-17.067 17.067-17.067v0h88.337l-181.931-177.493c-2.256-2.845-3.707-6.42-3.957-10.322l-0.003-0.054c0.077-9.367 7.688-16.931 17.066-16.931 0.048 0 0.096 0 0.144 0.001h100.413l-106.837-106.837c-3.138-3.148-5.077-7.492-5.077-12.288 0-9.599 7.77-17.384 17.363-17.408h162.818v-68.267h68.267v68.267h162.816c9.596 0.024 17.365 7.809 17.365 17.408 0 4.797-1.94 9.14-5.078 12.289v0l-106.837 106.837h100.42c9.426 0 17.067 7.641 17.067 17.067v0c-0.085 3.914-1.571 7.466-3.974 10.189l0.015-0.017zM979.285 153.736c0-9.501-7.702-17.203-17.203-17.203v0h-353.963c-0.015 0-0.033 0-0.052 0-9.501 0-17.203 7.702-17.203 17.203 0 2.813 0.675 5.467 1.872 7.812l-0.045-0.097 176.674 353.894c2.885 5.691 8.692 9.524 15.394 9.524s12.509-3.833 15.349-9.426l0.045-0.098 177.493-353.894c1.037-2.143 1.643-4.662 1.643-7.321 0-0.138-0.002-0.276-0.005-0.413v0.020zM870.4 273.066l-85.333 170.667-85.333-170.667z" />
<glyph unicode="&#xe958;" glyph-name="park" d="M955.733 563.2c0.771 46.851-25.928 89.832-68.267 109.909-3.584 44.332-40.864 78.329-85.333 77.824-6.745-0.539-13.394-1.918-19.797-4.096-4.144 45.056-44.025 78.22-89.074 74.076-17.661-1.625-34.311-8.936-47.459-20.828v0c0 47.131-38.202 85.333-85.333 85.333s-85.333-38.202-85.333-85.333c0 0 2.731-1.365 2.731-3.413-34.912 29.949-87.491 25.921-117.439-8.998-10.11-11.79-16.725-26.167-19.094-41.52-10.807 3.447-22.112 5.059-33.451 4.779-56.552 0.471-102.782-44.988-103.253-101.54-0.116-13.64 2.499-27.156 7.68-39.772-54.101-15.121-85.702-71.243-70.581-125.344 9.571-34.249 36.332-61.010 70.581-70.581 17.292-53.446 74.643-82.76 128.089-65.468 36.543 11.824 63.311 43.22 69.202 81.169 12.493-10.861 27.942-17.756 44.373-19.797v-341.333l-112.64-68.267h341.333l-109.227 68.267v136.533c50.388 60.86 115.473 107.855 189.099 136.533 54.695-12.827 109.431 21.108 122.259 75.796 1.939 8.267 2.84 16.746 2.669 25.238 0.198 3.639 0.198 7.284 0 10.923 42.339 20.077 69.038 63.058 68.267 109.909zM573.44 255.317v234.837c18.452-32.816 53.146-53.159 90.795-53.248h19.115c1.065-29.976 15.305-57.958 38.912-76.459-55.685-25.532-106.148-61.181-148.821-105.131z" />
<glyph unicode="&#xe959;" glyph-name="park-alt1" d="M643.618 243.78c-3.048 3.201-4.954 7.513-5.051 12.269v0.019c0.037 9.301 7.509 16.845 16.779 16.998h98.796c9.426 0 17.067 7.641 17.067 17.067v0c-0.132 4.809-2.173 9.117-5.388 12.214l-0.005 0.005-146.637 146.91c-2.499 3.183-4.083 7.19-4.299 11.557l-0.002 0.048c0 0 0 0 0 0 0 9.388 7.61 16.998 16.998 16.998 0.024 0 0.048 0 0.072 0h78.025c9.434 0.039 17.067 7.695 17.067 17.135 0 0 0 0 0 0v0c-0.024 4.783-2.035 9.091-5.249 12.145l-0.007 0.007-147.115 146.842c-2.74 3.077-4.437 7.137-4.505 11.591v0.014c0 0 0 0 0 0.001 0 9.378 7.563 16.989 16.923 17.066h59.126c9.426 0 17.067 7.641 17.067 17.067v0c-0.107 4.355-1.856 8.281-4.648 11.202l0.006-0.006h0.41l-133.393 160.29c-0.849 1.129-1.792 2.115-2.838 2.98l-0.029 0.023c-2.888 2.339-6.607 3.755-10.657 3.755-0.046 0-0.091 0-0.137-0.001h0.007c-0.038 0-0.084 0-0.13 0-4.050 0-7.769-1.416-10.688-3.78l0.032 0.025c-1.075-0.888-2.018-1.874-2.835-2.96l-0.032-0.044-132.983-160.29c-2.786-2.914-4.535-6.841-4.642-11.175v-0.021c0-9.426 7.641-17.067 17.067-17.067v0h59.119c0.491 0.052 1.060 0.082 1.636 0.082 9.086 0 16.452-7.366 16.452-16.452 0-4.886-2.129-9.274-5.511-12.287l-0.016-0.014-146.978-146.842c-3.222-3.061-5.233-7.369-5.257-12.147v-0.004c0-0.001 0-0.002 0-0.003 0-9.343 7.478-16.94 16.776-17.131h78.183c0.020 0 0.044 0 0.068 0 9.388 0 16.998-7.61 16.998-16.998 0 0 0 0 0 0v0c-0.218-4.415-1.802-8.422-4.334-11.65l0.034 0.044-146.773-146.91c-3.296-3.075-5.408-7.384-5.597-12.186l-0.001-0.034c0-9.426 7.641-17.067 17.067-17.067v0h98.987c9.343-0.077 16.892-7.65 16.93-16.995v-0.004c-0.098-4.775-2.004-9.087-5.059-12.296l0.007 0.008-146.705-146.159c-3.069-3.065-4.968-7.301-4.968-11.981s1.899-8.916 4.968-11.981v0c3.11-3.248 7.451-5.296 12.27-5.393h231.783v-68.267l68.267 0.546v67.721h231.492c9.617 0.107 17.412 7.759 17.748 17.309l0.001 0.031c0.001 0.066 0.001 0.145 0.001 0.223 0 4.62-1.851 8.808-4.851 11.863l0.002-0.003z" />
<glyph unicode="&#xe95a;" glyph-name="parking" d="M808.96 384.341c-65.072-48.374-144.992-72.52-225.963-68.267h-187.733v-316.075h-190.464v887.467h390.485c77.175 4.13 153.19-20.152 213.675-68.267 56.805-55.617 85.627-133.809 78.507-212.992 8.677-82.016-20.173-163.56-78.507-221.867zM665.6 703.146c-28.986 21.217-64.498 31.607-100.352 29.355h-169.984v-260.779h169.984c36.284-2.225 72.090 9.223 100.352 32.085 25.907 26.945 38.864 63.802 35.499 101.035 3.686 36.454-9.373 72.615-35.499 98.304z" />
<glyph unicode="&#xe95b;" glyph-name="parking-garage" d="M716.8 263.509c-45.309-32.686-100.57-48.613-156.331-45.056h-129.707v-218.453h-129.707v614.4h267.605c53.255 2.826 105.704-13.933 147.456-47.104 39.451-38.195 59.733-92.044 55.296-146.773 7.113-57.972-13.053-115.971-54.613-157.013zM614.4 484.693c-19.729 14.466-43.834 21.695-68.267 20.48h-115.371v-180.907h115.371c24.658-1.304 48.947 6.465 68.267 21.845 17.469 18.261 26.399 43.063 24.576 68.267 3.222 25.989-5.871 51.992-24.576 70.315zM983.723 668.33c7.782 16.971 0.478 37.048-16.384 45.056l-455.339 211.627-458.069-211.627c-17.155-7.919-24.644-28.242-16.725-45.397s28.242-24.644 45.397-16.725v0l429.397 198.656 429.397-197.973c16.971-7.782 37.048-0.478 45.056 16.384h-2.731z" />
<glyph unicode="&#xe95c;" glyph-name="pharmacy" d="M648.533 682.666l73.045 105.131c4.089-0.314 8.199-0.314 12.288 0 47.131 0.027 85.313 38.25 85.292 85.374-0.027 47.131-38.25 85.32-85.381 85.292-47.124-0.027-85.313-38.25-85.286-85.374 0-0.894 0.014-1.789 0.041-2.69 0 0 0-4.779 0-6.827l-170.667-180.907h170.667zM819.2 546.133v68.267h-614.4v-68.267l102.4-238.933-102.4-238.933v-68.267h614.4v68.267l-68.267 238.933 68.267 238.933zM682.667 273.066h-136.533v-136.533h-68.267v136.533h-136.533v68.267h136.533v136.533h68.267v-136.533h136.533v-68.267z" />
<glyph unicode="&#xe95d;" glyph-name="picnic-site" d="M273.067 750.933c-37.82 0-68.267-30.447-68.267-68.267s30.447-68.267 68.267-68.267h88.535l-44.005-136.533h-146.93c-37.82 0-68.267-30.447-68.267-68.267s30.447-68.267 68.267-68.267h103.069l-66.137-205.469c-8.765-26.89 5.926-55.794 32.816-64.56s55.794 5.926 64.56 32.816c0.034 0.089 0.061 0.184 0.089 0.273l76.268 236.94h261.332l76.268-236.933c8.69-26.918 37.553-41.69 64.464-33s41.69 37.553 33 64.464v0l-66.13 205.469h103.069c37.82 0 68.267 30.447 68.267 68.267s-30.447 68.267-68.267 68.267h-146.93l-44.005 136.533h88.535c37.82 0 68.267 30.447 68.267 68.267s-30.447 68.267-68.267 68.267h-477.867zM469.197 614.4h85.606l43.998-136.533h-173.602l43.998 136.533z" />
<glyph unicode="&#xe95e;" glyph-name="pitch" d="M341.333 750.933c-37.704 0-68.267 30.563-68.267 68.267s30.563 68.267 68.267 68.267 68.267-30.563 68.267-68.267-30.563-68.267-68.267-68.267zM853.333 273.066h-170.667l-68.267 204.8-68.267 119.467 68.267 17.067 157.013-68.267c18.848-7.543 40.243 1.632 47.787 20.48s-1.632 40.243-20.48 47.787v0l-184.32 68.267h-136.533l-136.533-68.267-68.267-68.267h-102.4c-18.848 0-34.133-15.285-34.133-34.133s15.285-34.133 34.133-34.133h170.667l68.267 68.267 68.267-136.533-136.533-136.533v-238.933c0-18.848 15.285-34.133 34.133-34.133s34.133 15.285 34.133 34.133v212.309l136.533 94.891 68.267-136.533h238.933c18.848 0 34.133 15.285 34.133 34.133s-15.285 34.133-34.133 34.133z" />
<glyph unicode="&#xe95f;" glyph-name="place-of-worship" d="M512 955.733l-136.533-136.533v-136.533h273.067v136.533l-136.533 136.533zM375.467 648.533l-102.4-102.4h477.867l-102.4 102.4h-273.067zM136.533 512c-37.704 0-68.267-30.563-68.267-68.267v-375.467h136.533v375.467c0 37.704-30.563 68.267-68.267 68.267zM273.067 512v-443.733h477.867v443.733h-477.867zM887.467 512c-37.704 0-68.267-30.563-68.267-68.267v-375.467h136.533v375.467c0 37.704-30.563 68.267-68.267 68.267z" />
<glyph unicode="&#xe960;" glyph-name="playground" d="M136.533 877.226c14.275 54.723 70.205 87.511 124.928 73.243s87.511-70.205 73.243-124.928c-13.674-52.436-65.83-85.135-118.982-74.609-55.473 10.991-91.539 64.867-80.555 120.347 0.396 1.993 0.853 3.98 1.365 5.946zM887.467 114.688c7.045-37.041-17.278-72.772-54.313-79.817-0.102-0.020-0.198-0.041-0.3-0.055-29.027-5.871-58.532 7.639-73.045 33.451v0l-114.688 230.059-98.987-19.797-15.019-5.461h-4.096v-146.773l42.325 10.24h9.557c19.599-0.369 35.191-16.555 34.823-36.161-0.266-14.090-8.841-26.692-21.852-32.106l-341.333-68.267c-3.843-0.649-7.762-0.649-11.605 0-19.606 0-35.499 15.892-35.499 35.499 0 14.329 8.615 27.259 21.845 32.768v0l283.307 56.661v148.139l-219.819-39.595c-11.196-2.888-22.938-2.888-34.133 0-23.17 5.919-41.561 23.525-48.469 46.421h-1.365l-68.267 277.845c-2.13 9.667-2.13 19.688 0 29.355 6.39 26.419 27.839 46.524 54.613 51.2v0l320.853 35.499v281.941h15.019v-279.893h4.096l15.019 1.365 27.307 5.461h14.336c18.248-4.39 29.532-22.685 25.259-40.96-2.997-16.043-17.135-27.587-33.451-27.307l-33.451-5.461h-19.115v-195.243h4.096l15.019 4.096 123.563 24.576c29.184 2.403 56.655-14.077 68.267-40.96v0l136.533-268.971c5.257-5.175 9.632-11.168 12.971-17.749zM512 605.525l-170.667-18.432 50.517-200.704 120.149 23.211v195.925z" />
<glyph unicode="&#xe961;" glyph-name="police" d="M375.467 887.466l34.133-68.267h341.333l34.133 68.267h-409.6zM409.6 785.066v-85.333c0 0 0-187.733 170.667-187.733s170.667 187.733 170.667 187.733v85.333h-341.333zM135.468 683.602c-37.649-0.587-67.721-31.553-67.202-69.202v-273.067c-0.007-43.677 40.428-76.131 83.067-66.669l190 42.271v-316.935l401.333 473.068c-9.544 2.792-19.401 4.799-29.867 4.799h-269.066l-238.933-51.466v188c0.526 38.489-30.85 69.803-69.332 69.202zM801.997 429.336l-364.264-429.336h381.467v371.466c0 21.402-6.41 41.219-17.203 57.87z" />
<glyph unicode="&#xe962;" glyph-name="post" d="M955.733 512v-375.467c0-37.704-30.563-68.267-68.267-68.267h-750.933c-37.704 0-68.267 30.563-68.267 68.267v375.467c0 18.848 15.285 34.133 34.133 34.133 4.724 1.038 9.612 1.038 14.336 0v0l395.264-273.067 395.947 273.067c4.506 0.942 9.148 0.942 13.653 0 18.848 0 34.133-15.285 34.133-34.133zM85.333 688.128v0l5.461-5.461 421.205-273.067 422.571 273.067h4.096c12.261 6.697 19.060 20.309 17.067 34.133 0 18.848-15.285 34.133-34.133 34.133h-819.2c-18.848 0-34.133-15.285-34.133-34.133 0.177-11.913 6.676-22.835 17.067-28.672z" />
<glyph unicode="&#xe963;" glyph-name="prison" d="M238.933 887.466v-887.467h580.267v887.467h-580.267zM648.533 819.2h102.4v-238.933h-102.4v238.933zM307.2 815.465h102.4v-337.599h-102.4v337.599zM477.867 815.465h102.4v-337.599h-102.4v337.599zM699.733 512c28.276 0 51.2-22.924 51.2-51.2s-22.924-51.2-51.2-51.2v0c-28.276 0-51.2 22.924-51.2 51.2v0c0 28.276 22.924 51.2 51.2 51.2zM477.867 409.6h100.536l1.864-341.333h-100.536l-1.864 341.333zM307.2 398.267h102.4v-330.001h-102.4v330.001zM648.533 341.333h102.4v-273.067h-102.4v273.067z" />
<glyph unicode="&#xe964;" glyph-name="rail" d="M204.8 887.466c-37.704 0-68.267-30.563-68.267-68.267v-546.133c0-37.704 30.563-68.267 68.267-68.267h614.4c37.704 0 68.267 30.563 68.267 68.267v546.133c0 37.704-30.563 68.267-68.267 68.267h-614.4zM392.533 853.333h239.6c9.428 0 17.067-7.639 17.067-17.067s-7.639-17.067-17.067-17.067h-239.6c-9.428 0-17.067 7.639-17.067 17.067s7.639 17.067 17.067 17.067zM238.933 750.933h238.933v-273.067h-238.933c-18.848 0-34.133 15.285-34.133 34.133v204.8c0 18.848 15.285 34.133 34.133 34.133zM546.133 750.933h238.933c18.848 0 34.133-15.285 34.133-34.133v-204.8c0-18.848-15.285-34.133-34.133-34.133h-238.933v273.067zM341.333 409.6c37.704 0 68.267-30.563 68.267-68.267s-30.563-68.267-68.267-68.267c-37.704 0-68.267 30.563-68.267 68.267s30.563 68.267 68.267 68.267zM682.667 409.6c37.704 0 68.267-30.563 68.267-68.267s-30.563-68.267-68.267-68.267c-37.704 0-68.267 30.563-68.267 68.267s30.563 68.267 68.267 68.267zM713.067 136.933c-4.418-0.376-8.897-1.668-13.067-3.867-15.244-8.028-22.096-26.156-16-42.267l11.6-22.533h-367.2l8.8 18.4c6.67 17.633-2.233 37.33-19.867 44-16.111 6.089-34.239-0.763-42.267-16l-68.267-136.533c-1.447-3.932-2.096-8.082-2-12.267 0-18.848 15.285-34.133 34.133-34.133 12.302 0.068 23.558 6.865 29.333 17.733v3.467h4.8l21.2 47.067h435.467l21.2-47.067v-3.467c5.775-10.868 17.032-17.665 29.333-17.733 18.848 0 34.133 15.285 34.133 34.133 1.358 5.379 1.358 11.021 0 16.4l-68.267 136.533c-6.589 12.508-19.813 19.262-33.067 18.133z" />
<glyph unicode="&#xe965;" glyph-name="rail-light" d="M375.467 955.733c-34.133 0-34.133-34.133-34.133-34.133v-68.267c0-18.91 15.223-34.133 34.133-34.133s34.133 15.223 34.133 34.133v34.133h68.267v-136.533h-68.267c0 0-136.533 0-136.533-136.533v-204.8c0-204.8 204.8-204.8 204.8-204.8h68.267c0 0 204.8 0 204.8 204.8v204.8c0 136.533-136.533 136.533-136.533 136.533h-68.267v136.533h68.267v-34.133c0-18.91 15.223-34.133 34.133-34.133s34.133 15.223 34.133 34.133v68.267c0 34.133-34.133 34.133-34.133 34.133h-273.067zM512 682.666l139.599-52.797 31.068-117.869c8.984-34.133-34.133-34.133-34.133-34.133h-273.067c0 0-43.117 0-34.133 34.133l31.068 117.869 139.599 52.797zM512 409.6c18.848 0 34.133-15.285 34.133-34.133s-15.285-34.133-34.133-34.133-34.133 15.285-34.133 34.133 15.285 34.133 34.133 34.133zM281.6 136.533l-76.8-204.8h102.4l25.6 68.267h358.4l25.6-68.267h102.4l-76.8 204.8h-102.4l25.6-68.267h-307.2l25.6 68.267h-102.4z" />
<glyph unicode="&#xe966;" glyph-name="rail-metro" d="M375.467 955.733c0 0-51.2 0-68.267-68.267l-102.4-375.467v-238.933c0-68.267 68.267-68.267 68.267-68.267h477.867c0 0 68.267 0 68.267 68.267v238.933l-102.4 375.467c-18.616 68.267-68.267 68.267-68.267 68.267h-273.067zM443.733 853.333h136.533c0 0 36.57 0 51.2-68.267l51.2-238.933c14.65-68.383-68.267-68.267-68.267-68.267h-204.8c0 0-82.917-0.116-68.267 68.267l51.2 238.933c14.63 68.267 51.2 68.267 51.2 68.267zM341.333 409.6c37.704 0 68.267-30.563 68.267-68.267s-30.563-68.267-68.267-68.267-68.267 30.563-68.267 68.267 30.563 68.267 68.267 68.267zM460.8 409.6h102.4c9.455 0 17.067-7.612 17.067-17.067s-7.612-17.067-17.067-17.067h-102.4c-9.455 0-17.067 7.612-17.067 17.067s7.612 17.067 17.067 17.067zM682.667 409.6c37.704 0 68.267-30.563 68.267-68.267s-30.563-68.267-68.267-68.267-68.267 30.563-68.267 68.267 30.563 68.267 68.267 68.267zM281.6 136.533l-76.8-204.8h102.4l25.6 68.267h358.4l25.6-68.267h102.4l-76.8 204.8h-102.4l25.6-68.267h-307.2l25.6 68.267h-102.4z" />
<glyph unicode="&#xe967;" glyph-name="ranger-station" d="M614.4 921.6l-136.533-68.267v-257.597l-341.333-186.136v-409.6h273.067v273.067h204.8v-273.067h273.067v409.6l-341.333 186.136v86.931l68.267 34.133 136.533-68.267 136.533 68.267v204.8l-136.533-68.267-136.533 68.267z" />
<glyph unicode="&#xe968;" glyph-name="recycling" d="M167.636 367.725c-23.047-40.81-65.167-115.282 9.38-165.055 23.429-15.483 49.664-26.187 77.21-31.498 20.985-3.113 22.023-35.396-2.628-34.639-26.276 1.318-154.255 13.203-174.804 109.193-10.622 56.067 1.393 106.298 34.406 160.809l47.609 84.166-89.204 50.736 237.595 141.23v-273.067l-89.149 47.398-50.415-89.272zM457.387 816.879c78.848 42.871 124.45-29.355 149.572-68.745l55.016-86.228-86.419-55.153 243.644-127.932-13.449 274.842-86.282-55.064-51.889 81.142c-35.622 50.92-61.713 88.528-125.269 105.472-111.753 21.347-180.449-108.298-179.746-107.452-11.189-19.599 14.718-36.857 30.788-14.336 17.626 21.852 39.39 40.011 64.034 53.453zM907.537 394.513c-5.987 12.95-37.458 9.646-28.604-18.227 8.957-26.569 12.595-54.634 10.718-82.603-6.349-89.566-92.023-88.883-138.718-88.883h-102.4v102.4l-238.933-136.533 238.114-138.24 0.314 104.107h102.905c60.798-1.044 109.22 12.008 150.187 48.674 81.92 72.431 6.417 209.306 6.417 209.306z" />
<glyph unicode="&#xe969;" glyph-name="religious-christian" d="M409.6 890.525v-207.858h-204.8v-204.8h204.8v-546.133h204.8v546.133h204.8v204.8h-204.8v204.8c0 68.267-66.737 68.267-66.737 68.267h-70.567c0 0-67.495 0-67.495-65.208z" />
<glyph unicode="&#xe96a;" glyph-name="religious-jewish" d="M1024 136.533h-356.352l-155.648-204.8-154.283 204.8h-357.717l184.32 273.067-184.32 273.067h361.813l150.187 273.067 159.744-273.067h352.256l-174.763-273.067 174.763-273.067z" />
<glyph unicode="&#xe96b;" glyph-name="religious-muslim" d="M463.811 955.733c-259.011 0-463.811-204.8-463.811-463.811s204.8-463.811 463.811-463.811c144.561 0 301.179 48.189 385.509 156.611-54.211-36.14-156.611-78.309-234.919-78.309-198.779 0-349.361 198.779-349.361 397.551s150.583 373.46 349.361 373.46c72.281 0 174.681-42.161 234.919-78.309-84.33 108.428-240.94 156.617-385.509 156.617zM750.933 750.933l-68.267-170.667h-204.8l170.667-102.4-68.267-204.8 170.667 102.4 170.667-102.4-68.267 204.8 170.667 102.4h-204.8l-68.267 170.667z" />
<glyph unicode="&#xe96c;" glyph-name="residential-community" d="M805.547 34.133v170.667c47.787 6.827 81.92 47.787 81.92 102.4s-47.787 102.4-102.4 102.4-102.4-47.787-102.4-102.4c0-47.787 34.133-95.573 81.92-102.4v-170.667h-286.72v785.067h-341.333v-785.067h-68.267v-34.133h887.467v34.133h-150.187zM409.6 204.8h-204.8v68.267h204.8v-68.267zM409.6 341.333h-204.8v68.267h204.8v-68.267zM409.6 477.866h-204.8v68.267h204.8v-68.267zM409.6 614.4h-204.8v68.267h204.8v-68.267z" />
<glyph unicode="&#xe96d;" glyph-name="restaurant" d="M238.933 955.733l-68.267-375.467c-9.994-54.955 121.617-80.623 119.467-136.533l-17.067-443.733c-2.621-68.219 68.267-68.267 68.267-68.267s70.888 0.048 68.267 68.267l-17.067 443.733c-2.144 55.815 118.333 80.609 119.467 136.533l-68.267 375.467h-34.133l17.067-273.067-51.2-34.133-17.067 307.2h-34.133l-17.067-307.2-51.2 34.133 17.067 273.067h-34.133zM819.2 955.733c-50.272 0-134.089-44.708-167.601-111.732-27.928-50.272-37.199-162.577-37.199-229.601v-170.667c0-55.856 74.472-68.267 102.4-68.267l-34.133-375.467c-6.178-67.987 68.267-68.267 68.267-68.267s68.267 0 68.267 68.267v955.733z" />
<glyph unicode="&#xe96e;" glyph-name="roadblock" d="M512 955.733c-282.767 0-512-229.233-512-512s229.233-512 512-512 512 229.233 512 512-229.233 512-512 512zM204.8 546.133h614.4v-204.8h-614.4v204.8z" />
<glyph unicode="&#xe96f;" glyph-name="rocket" d="M857.068 887.466c-146.371 0-342.774-100.42-474.665-273.067h-109.336c-79.005 0-124.286-58.969-155.464-121.33l-41.738-83.47h197.202l204.8-204.8v-197.202l83.47 41.731c62.362 31.184 121.33 76.465 121.33 155.471v109.336c172.646 131.891 273.067 328.294 273.067 474.665v98.666h-98.666zM682.667 682.666c37.704 0 68.267-30.563 68.267-68.267v0c0-37.704-30.563-68.267-68.267-68.267v0c-37.704 0-68.267 30.563-68.267 68.267v0c0 37.704 30.563 68.267 68.267 68.267v0zM238.933 273.066l-34.133-34.133c-49.302-49.302-68.267-170.667-68.267-170.667s115.917 13.517 170.667 68.267l34.133 34.133-102.4 102.4z" />
<glyph unicode="&#xe970;" glyph-name="school" d="M750.933 68.266v68.267h136.533v68.267h-238.933v68.267h238.933v68.267h-136.533v68.267h136.533v68.267h-136.533v68.267h136.533v68.267h-238.933v68.267h238.933v68.267h-136.533v68.267h136.533v68.267h-341.333v-887.467h341.333v68.267h-136.533zM409.6 204.8h-273.067v682.667h273.067v-682.667zM409.6 136.533l-136.533-136.533-136.533 136.533h273.067z" />
</font>
</defs>
</svg>
